<?xml version="1.0" encoding="UTF-8" standalone="no"?>
<!-- Created with Inkscape (http://www.inkscape.org/) -->

<svg
   xmlns:dc="http://purl.org/dc/elements/1.1/"
   xmlns:cc="http://creativecommons.org/ns#"
   xmlns:rdf="http://www.w3.org/1999/02/22-rdf-syntax-ns#"
   xmlns:svg="http://www.w3.org/2000/svg"
   xmlns="http://www.w3.org/2000/svg"
   xmlns:sodipodi="http://sodipodi.sourceforge.net/DTD/sodipodi-0.dtd"
   xmlns:inkscape="http://www.inkscape.org/namespaces/inkscape"
   width="210mm"
   height="297mm"
   viewBox="0 0 210 297"
   version="1.1"
   id="svg8"
   inkscape:version="0.92.4 (5da689c313, 2019-01-14)"
   sodipodi:docname="volbybile.svg">
  <defs
     id="defs2">
    <clipPath
       clipPathUnits="userSpaceOnUse"
       id="clipPath1252">
      <path
         style="fill:#ff2a2a;fill-opacity:1;stroke:none;stroke-width:8.08122063;stroke-miterlimit:4;stroke-dasharray:none;stroke-dashoffset:0;stroke-opacity:1"
         d="m 918.91906,404.62115 c -11.25329,-2.11833 -69.65485,-29.28887 -76.97364,-35.81093 -7.31169,-6.51573 -21.88369,-10.87593 -36.34785,-10.87593 -11.10049,0 -17.91042,1.64851 -34.7018,8.40052 -22.9261,9.21879 -69.10359,23.29071 -77.55221,23.6329 -2.93997,0.11909 -10.63733,0.76964 -17.10523,1.44573 -6.46793,0.67609 -27.32215,1.64357 -46.34272,2.14993 -38.22904,1.01777 -54.99516,-1.64955 -69.38892,-11.03911 -9.79312,-6.38841 -15.10813,-15.00465 -23.20591,-37.61943 -9.48926,-26.5008 -8.99986,-39.40884 2.33222,-61.51065 15.03505,-29.32401 26.32403,-41.15778 77.64997,-81.39724 20.65555,-16.19392 29.02117,-26.60512 29.02117,-36.11756 0,-10.0621 -1.94715,-11.92407 -25.65789,-24.53584 -23.78901,-12.65335 -46.31561,-21.44432 -49.65769,-19.37879 -1.46225,0.90371 -6.40551,1.83441 -10.98502,2.06824 -4.57952,0.2338 -15.74941,3.90852 -24.82202,8.16604 -9.07262,4.25752 -28.91433,11.17852 -44.09271,15.38004 -24.87837,6.88655 -29.33549,7.51235 -45.24412,6.35261 -9.70589,-0.70756 -21.3609,-2.56598 -25.90001,-4.12985 -10.9375,-3.76826 -27.53638,-17.73788 -32.15865,-27.06474 -3.84066,-7.74977 -4.24952,-9.05528 -15.06603,-48.108509 -3.58281,-12.935847 -7.59704,-27.026745 -8.92051,-31.313106 -1.96551,-6.365783 -1.53239,-12.534191 2.36437,-33.6738864 8.13652,-44.1400966 21.65376,-65.4490476 50.84141,-80.1476946 19.03711,-9.586936 30.0192,-21.759397 38.86332,-43.075744 14.50404,-34.95808 17.91491,-39.52256 57.35622,-76.75427 12.36675,-11.67395 14.74052,-18.37029 12.49979,-35.26177 -1.38785,-10.46202 -12.5411,-45.76378 -15.84545,-50.15324 -2.38239,-3.16471 -8.30162,-19.93038 -9.91171,-28.07393 -0.69753,-3.52796 -1.65214,-8.33882 -2.12135,-10.69078 -0.78513,-3.93547 -4.01196,-11.52271 -17.27772,-40.62498 -9.02314,-19.7949 -11.4777,-26.61396 -16.86309,-46.84752 -2.95044,-11.08525 -9.16998,-27.86139 -13.82114,-37.28034 -4.65119,-9.41896 -9.14842,-19.35983 -9.99387,-22.09083 -0.84545,-2.73098 -6.89544,-15.94052 -13.4444,-29.35447 -13.35985,-27.36432 -15.78576,-40.86714 -11.10219,-61.79558 2.18242,-9.75201 4.60301,-13.78283 13.64081,-22.71474 13.82937,-13.6674 39.85387,-31.12095 70.178,-47.06559 19.61957,-10.31611 25.26673,-18.1401 25.26673,-35.00636 0,-21.39821 -5.89864,-31.45994 -39.05279,-66.61505 -15.93487,-16.89663 -30.96924,-34.71915 -33.40968,-39.60564 -4.65994,-9.33066 -18.86595,-23.55384 -50.19767,-50.25839 -20.16832,-17.18977 -33.4681,-36.44077 -33.3783,-48.31398 0.0618,-8.1734 6.65382,-22.19767 13.03446,-27.73037 9.87869,-8.56588 16.09069,-11.52686 18.70279,-8.91476 1.80961,1.80961 2.42628,1.57625 2.42628,-0.91811 0,-3.45495 3.87747,-5.13085 35.97026,-15.54694 9.78776,-3.17672 22.19566,-8.5661 27.57313,-11.97637 10.22763,-6.48618 34.95278,-16.31373 42.29536,-16.81122 2.35197,-0.15936 8.60608,-0.83955 13.89801,-1.51152 33.38574,-4.23926 58.3986,-4.13049 79.68155,0.34653 18.39214,3.8689 62.02897,4.13295 68.52634,0.41468 9.44216,-5.40353 111.20596,-0.62098 132.95966,6.24864 16.54792,5.2257 28.51055,15.17827 52.69598,43.84156 14.05533,16.65761 21.40638,35.76707 21.14166,54.95878 -0.1905,13.81593 0.89945,26.42113 3.18445,36.82457 2.1127,9.61911 14.95499,35.82215 20.39437,41.61211 10.03991,10.68697 30.66063,17.07639 82.18866,25.46649 4.70395,0.76591 17.76956,4.60237 29.03486,8.52548 11.2652,3.92308 28.2223,8.71159 37.6826,10.64115 21.1006,4.30368 38.3039,10.43815 44.2603,15.78255 2.4654,2.21216 5.9259,4.66331 7.6899,5.44698 7.5569,3.35732 47.1665,35.53709 53.2295,43.24495 8.6093,10.945 4.1578,41.85624 -10.4291,72.41879 -7.8924,16.53619 -18.7333,57.11595 -22.8691,85.60438 -2.2162,15.26569 30.5418,36.89657 64.9682,42.90004 23.6797,4.12938 34.0999,7.8499 60.3674,21.55402 34.6549,18.07996 59.8755,41.35625 74.4509,68.71128 5.0056,9.39464 10.5959,18.32166 12.4227,19.8378 4.9302,4.09173 18.0238,24.43205 18.0238,27.99927 0,1.70106 0.7948,4.0069 1.7663,5.12408 0.9715,1.11717 2.9631,5.87994 4.4256,10.58386 3.3059,10.63215 -0.082,55.37614 -5.3758,71.00057 -5.5861,16.48678 -32.8155,47.50572 -60.3243,68.71972 -8.6218,6.64885 -21.2096,16.41858 -27.973,21.71052 -50.3782,39.41793 -57.5577,44.425042 -69.6365,48.56556 -12.5553,4.303853 -13.3614,4.442362 -38.5236,6.619261 -10.5839,0.915665 -20.8867,2.600105 -22.895,3.743227 -2.0083,1.143124 -8.8188,7.055168 -15.1344,13.13788 -17.2605,16.624057 -18.6152,22.512989 -20.0655,87.226703 -1.1494,51.287718 -1.4046,53.815981 -6.2975,62.388812 -9.2341,16.179087 -45.5146,39.266017 -56.9899,36.265177 -2.2264,-0.58222 -8.4637,0.27035 -13.8606,1.8946 -5.397,1.62425 -10.634,2.4456 -11.6378,1.82522 -1.0038,-0.62039 -9.71691,1.50025 -19.3625,4.71254 -27.84973,9.2748 -44.57065,27.9987 -44.71215,50.06813 -0.0379,5.88876 4.09183,19.00748 8.1947,26.03257 4.13816,7.08548 31.31539,27.42134 36.64643,27.42134 1.61692,0 5.24809,1.81567 8.06934,4.03487 2.82118,2.21917 8.74598,4.68269 13.16618,5.47447 12.6143,2.2596 39.2008,11.81132 49.2792,17.70451 15.353,8.97745 27.6622,23.13025 36.838,42.3554 4.6831,9.81218 8.5148,19.38869 8.5148,21.28115 0,6.06304 -5.7872,14.69843 -17.4751,26.07554 -13.8105,13.44329 -31.6124,23.71476 -56.7055,32.71832 -10.356,3.71581 -20.2724,7.33137 -22.0364,8.03455 -1.764,0.70323 -5.1316,1.45404 -7.4835,1.66849 -2.35204,0.21447 -11.49265,2.38249 -20.31253,4.81782 -35.05454,9.67923 -42.35403,10.43549 -63.07561,6.53481 z"
         id="path1254"
         inkscape:connector-curvature="0" />
    </clipPath>
  </defs>
  <sodipodi:namedview
     id="base"
     pagecolor="#ffffff"
     bordercolor="#666666"
     borderopacity="1.0"
     inkscape:pageopacity="0.0"
     inkscape:pageshadow="2"
     inkscape:zoom="0.12374369"
     inkscape:cx="1382.1069"
     inkscape:cy="2800.2239"
     inkscape:document-units="mm"
     inkscape:current-layer="layer1"
     showgrid="false"
     inkscape:window-width="1920"
     inkscape:window-height="986"
     inkscape:window-x="-11"
     inkscape:window-y="-11"
     inkscape:window-maximized="1" />
  <metadata
     id="metadata5">
    <rdf:RDF>
      <cc:Work
         rdf:about="">
        <dc:format>image/svg+xml</dc:format>
        <dc:type
           rdf:resource="http://purl.org/dc/dcmitype/StillImage" />
        <dc:title></dc:title>
      </cc:Work>
    </rdf:RDF>
  </metadata>
  <g
     inkscape:label="Vrstva 1"
     inkscape:groupmode="layer"
     id="layer1">
    <g
       id="g1134"
       transform="translate(0.52916667)"
       clip-path="url(#clipPath1252)">
      <path
         transform="scale(0.26458333)"
         inkscape:connector-curvature="0"
         id="path964"
         d="m 3183.6379,-1381.841 c 2.4707,-8.3053 9.9138,-18.5124 26.7565,-36.6923 37.3957,-40.3646 91.072,-86.5359 115.5648,-99.4066 28.4791,-14.9653 71.7071,-27.4759 96.3913,-27.8966 11.7742,-0.2006 13.8122,0.3628 18.5879,5.1385 11.0929,11.0929 4.8054,40.3722 -10.6544,49.6143 -7.8728,4.7064 -16.564,6.7512 -60.3777,14.205 -66.3962,11.2958 -97.6405,25.8152 -151.4322,70.3713 -36.6446,30.3531 -36.4968,30.2484 -34.8362,24.6664 z"
         style="fill:#000000;fill-opacity:1;stroke:#000000;stroke-width:7.63579893;stroke-miterlimit:4;stroke-dasharray:none;stroke-dashoffset:0;stroke-opacity:1" />
      <path
         transform="scale(0.26458333)"
         inkscape:connector-curvature="0"
         id="path966"
         d="m 3817.0082,-1438.4199 c -43.6011,-20.6001 -59.4846,-25.2442 -113.6559,-33.231 -44.9667,-6.6297 -52.6784,-9.1828 -66.1109,-21.8867 -5.8634,-5.5453 -10.6607,-11.2334 -10.6607,-12.6402 0,-4.1919 11.6914,-12.7456 20.8,-15.2176 14.0235,-3.806 42.084,-1.1913 64.1868,5.981 33.8697,10.9907 75.4319,34.6798 106.2356,60.5509 12.0029,10.0809 22.7804,23.3848 20.6461,25.486 -0.4106,0.4043 -10.0591,-3.6648 -21.441,-9.0424 z"
         style="fill:#000000;fill-opacity:1;stroke:#000000;stroke-width:7.63579893;stroke-miterlimit:4;stroke-dasharray:none;stroke-dashoffset:0;stroke-opacity:1" />
      <path
         transform="scale(0.26458333)"
         inkscape:connector-curvature="0"
         id="path968"
         d="m 1843.9785,-1913.4295 c -28.0447,-104.6481 -44.7892,-179.2688 -41.0553,-182.9603 5.8877,-5.8208 243.7142,-146.4467 415.6832,-245.7918 413.7886,-239.0423 613.3336,-348.8796 618.5342,-340.4648 6.3906,10.3402 21.4444,172.0555 29.0027,311.5608 l 5.3057,97.9277 -201.1624,79.1089 c -110.6393,43.5099 -308.4406,128.0352 -439.5584,187.834 -237.8879,108.4932 -347.2091,155.415 -362.0955,155.415 -4.3286,0 -15.4229,-28.1833 -24.6542,-62.6295 z"
         style="fill:#ffffff;fill-opacity:1;stroke:#ffffff;stroke-width:30.54319572;stroke-miterlimit:4;stroke-dasharray:none;stroke-dashoffset:0;stroke-opacity:1" />
      <path
         transform="scale(0.26458333)"
         inkscape:connector-curvature="0"
         id="path970"
         d="m 3790.4037,-2239.4316 c -162.2305,-12.6547 -418.6072,-27.0081 -569.726,-31.8965 -151.1188,-4.8883 -282.6541,-10.4527 -292.3005,-12.3653 -11.2432,-2.2291 -19.24,-11.4573 -22.2776,-25.7082 -5.1764,-24.2845 -28.8515,-329.2652 -28.8653,-371.8393 -0.01,-25.8207 0.6109,-26.2735 30.2961,-22.1562 16.6675,2.3118 86.6711,11.609 155.5635,20.6605 307.4109,40.3896 569.3695,93.3605 880.853,178.118 227.8962,62.0126 250.5178,69.5586 250.5178,83.5665 0,22.5784 -24.4049,192.2391 -28.638,199.0883 -6.379,10.3216 -38.0722,8.8469 -375.423,-17.4678 z"
         style="fill:#ffffff;fill-opacity:1;stroke:#ffffff;stroke-width:30.54319572;stroke-miterlimit:4;stroke-dasharray:none;stroke-dashoffset:0;stroke-opacity:1" />
      <path
         transform="scale(0.26458333)"
         inkscape:connector-curvature="0"
         id="path972"
         d="m 2317.1191,-2454.8712 c -1.901,-3.3335 -8.0727,-20.6071 -13.715,-38.3858 -36.294,-114.3625 -208.0421,-373.3146 -334.1997,-503.8876 -61.8278,-63.9916 -179.4758,-164.0721 -264.0671,-224.6358 -35.386,-25.3349 -64.3382,-48.4426 -64.3382,-51.3506 0,-9.7746 221.7223,-112.3554 270.7209,-125.2501 71.122,-18.7169 412.3249,-44.1554 593.9697,-44.2837 86.6711,-0.061 233.9513,3.5803 327.2894,8.0923 166.318,8.0397 170.0343,8.604 186.1683,28.2679 23.2853,28.3797 79.8961,175.8438 113.1854,294.8342 32.3078,115.4821 84.5043,352.1922 84.5043,383.2257 0,26.0195 -3.3646,26.1121 -169.7057,4.6729 -188.0743,-24.2403 -177.5844,-25.7831 -309.8406,45.568 -62.9329,33.9518 -148.9706,82.538 -191.195,107.9695 -83.2949,50.1678 -212.484,121.224 -220.4006,121.224 -2.7058,0 -6.4751,-2.7274 -8.3761,-6.0609 z m 73.2132,-308.7699 c 27.7792,-13.1418 50.4982,-26.776 50.4868,-30.2982 -0.01,-3.5223 -13.1711,-28.2131 -29.2437,-54.8685 -16.0726,-26.6554 -32.3377,-56.657 -36.1447,-66.6701 -9.2534,-24.3385 -35.3585,-23.4852 -84.9101,2.7754 -73.3723,38.8847 -73.4788,39.4425 -22.2413,116.4966 43.652,65.6465 49.0693,67.0919 122.053,32.5648 z m 627.2067,-153.7298 c 22.7772,-22.2876 -53.2769,-34.2473 -95.4863,-15.0155 -21.3885,9.7453 -24.8077,15.9627 -14.5223,26.4079 7.4937,7.6101 100.4238,-2.0137 110.0086,-11.3924 z m -97.5956,-59.9903 c 39.051,-5.9287 73.2096,-12.9872 75.9079,-15.6856 10.6668,-10.6667 -26.0639,-15.3747 -87.2381,-11.1818 -61.6819,4.2278 -92.7706,15.8109 -83.3494,31.0546 5.5714,9.0149 8.6047,8.8808 94.6796,-4.1872 z m -873.8298,-54.9082 c 8.8903,-27.7595 18.8175,-38.692 54.5442,-60.0674 l 43.6759,-26.1313 25.7773,19.6613 c 14.1775,10.8137 29.9797,19.6613 35.116,19.6613 14.9704,0 10.7616,-36.6135 -5.9471,-51.7346 -8.4072,-7.6084 -13.6682,-20.019 -11.6912,-27.5791 2.0263,-7.7485 -8.1077,-27.8215 -23.2274,-46.0079 -50.581,-60.8404 -48.9411,-57.1151 -36.1799,-82.1893 6.3832,-12.5421 14.1298,-30.9861 17.2148,-40.9866 8.4153,-27.2804 -15.3833,-23.3992 -37.1641,6.0609 -9.8583,13.334 -23.2847,24.2437 -29.8365,24.2437 -6.5519,0 -28.2049,9.548 -48.1179,21.2178 -34.7168,20.3454 -37.9964,20.7881 -79.7644,10.7681 -32.0229,-7.6822 -45.9444,-8.0643 -52.5656,-1.4431 -6.6213,6.6213 -1.2012,13.6119 20.4656,26.3956 18.026,10.6356 29.4722,23.5624 29.4722,33.2845 0,19.9397 11.4143,41.592 45.6685,86.6308 25.0994,33.0017 26.5985,38.4069 21.852,78.7919 -4.2182,35.8909 -2.9485,43.3595 7.3716,43.3595 7.5313,0 16.7707,-13.4363 23.336,-33.9361 z m 706.6085,1.1256 c 26.2526,-9.1564 83.2165,-19.488 126.5864,-22.9591 43.3699,-3.4712 81.1144,-8.5713 83.8769,-11.3337 2.7623,-2.7624 -5.448,-9.1865 -18.2452,-14.2759 -12.7972,-5.0893 -29.484,-12.4372 -37.0817,-16.3286 -15.1004,-7.7341 -43.3182,-3.9928 -111.4449,14.776 -77.1273,21.2485 -105.0559,34.9354 -105.0559,51.4844 0,19.095 2.8927,19.0307 61.3644,-1.3631 z m 47.1287,-187.9654 c 53.0615,-11.0358 70.973,-29.7419 28.4784,-29.7419 -37.7145,0 -88.4841,16.9626 -88.4841,29.5634 0,12.852 -0.9172,12.8493 60.0057,0.1785 z m 57.1044,-63.1532 c 16.6425,-15.9244 -16.3894,-24.1151 -80.7446,-20.0218 -68.4085,4.3512 -117.1777,17.2321 -117.1777,30.9489 0,10.4331 186.351,0.1449 197.9223,-10.9271 z m -252.1111,-26.8685 c 27.5815,-6.4858 96.7081,-14.1363 153.6148,-17.001 90.0487,-4.5331 103.1369,-6.9339 100.9243,-18.5121 -5.3205,-27.8418 -192.3296,-20.198 -291.2641,11.9051 -37.0979,12.0378 -44.3644,18.6469 -32.9983,30.013 7.4719,7.4719 12.7876,6.9836 69.7233,-6.405 z"
         style="fill:#ffffff;fill-opacity:1;stroke:#ffffff;stroke-width:30.54319572;stroke-miterlimit:4;stroke-dasharray:none;stroke-dashoffset:0;stroke-opacity:1" />
      <path
         transform="scale(0.26458333)"
         inkscape:connector-curvature="0"
         id="path974"
         d="m 2321.7405,-2773.897 c -11.605,-14.4763 -42.525,-76.8276 -42.525,-85.7532 0,-10.7399 46.0619,-28.2059 60.1394,-22.8039 12.5699,4.8235 61.0789,67.6419 61.0789,79.0963 0,19.2673 -66.8131,44.2805 -78.6933,29.4608 z"
         style="fill:#ffffff;fill-opacity:1;stroke:#ffffff;stroke-width:30.54319572;stroke-miterlimit:4;stroke-dasharray:none;stroke-dashoffset:0;stroke-opacity:1" />
      <path
         transform="scale(0.26458333)"
         inkscape:connector-curvature="0"
         id="path976"
         d="m 2125.1696,-3173.46 c -20.5934,-10.5933 -34.3756,-23.215 -34.3756,-31.481 0,-5.3936 10.9754,-23.6895 14.211,-23.6895 6.1819,0 51.5033,55.1369 51.5033,62.6577 0,5.6749 -10.7394,3.1092 -31.3387,-7.4872 z"
         style="fill:#ffffff;fill-opacity:1;stroke:#ffffff;stroke-width:10.79865074;stroke-miterlimit:4;stroke-dasharray:none;stroke-dashoffset:0;stroke-opacity:1" />
      <path
         transform="scale(0.26458333)"
         inkscape:connector-curvature="0"
         id="path978"
         d="m 2038.9199,-3219.8912 c -7.3165,-4.6284 -14.0756,-9.6658 -15.0203,-11.1944 -2.5876,-4.1868 20.8204,-22.922 33.3169,-26.666 9.2284,-2.7649 11.6912,-2.5611 15.5382,1.2859 4.1908,4.1908 4.002,6.1954 -2.2659,24.0606 -8.1352,23.1873 -12.169,24.7863 -31.5689,12.5139 z"
         style="fill:#ffffff;fill-opacity:1;stroke:#ffffff;stroke-width:10.79865074;stroke-miterlimit:4;stroke-dasharray:none;stroke-dashoffset:0;stroke-opacity:1" />
      <path
         transform="scale(0.26458333)"
         inkscape:connector-curvature="0"
         id="path980"
         d="m 2015.9378,-3151.4597 c -18.4432,-16.4381 -33.7152,-38.027 -33.7152,-47.6606 0,-5.792 1.397,-6.653 10.7948,-6.653 11.7248,0 47.9558,15.8687 54.6302,23.9274 3.3212,4.0099 3.3889,6.862 0.4008,16.8775 -4.3973,14.7383 -10.9193,27.7665 -13.9003,27.7665 -1.2174,0 -9.412,-6.416 -18.2103,-14.2578 z"
         style="fill:#ffffff;fill-opacity:1;stroke:#ffffff;stroke-width:10.79865074;stroke-miterlimit:4;stroke-dasharray:none;stroke-dashoffset:0;stroke-opacity:1" />
      <path
         transform="scale(0.26458333)"
         inkscape:connector-curvature="0"
         id="path982"
         d="m 2068.7261,-3118.309 c 1.7349,-16.8102 8.528,-32.5478 15.1452,-35.087 5.4853,-2.1049 26.9227,12.1091 26.9227,17.851 0,11.9087 -23.2056,32.6288 -36.5427,32.6288 -6.8967,0 -7.0654,-0.4699 -5.5252,-15.3928 z"
         style="fill:#ffffff;fill-opacity:1;stroke:#ffffff;stroke-width:10.79865074;stroke-miterlimit:4;stroke-dasharray:none;stroke-dashoffset:0;stroke-opacity:1" />
      <path
         transform="scale(0.26458333)"
         inkscape:connector-curvature="0"
         id="path1004"
         d="m 1843.3265,-22.083806 c -121.0102,-43.517509 -144.5349,-102.239674 -67.9102,-169.517034 40.4569,-35.52167 49.1299,-32.1164 48.391,18.99978 -0.8049,55.68218 16.2715,82.553544 59.9328,94.310322 45.8005,12.332791 81.6346,-0.933777 111.2325,-41.180632 25.3138,-34.42142 35.2732,-32.2455 45.8823,10.02428 7.648,30.472398 -13.6362,58.609696 -62.908,83.162868 -49.1561,24.4955199 -75.8677,25.32897655 -134.6204,4.200416 z"
         style="fill:#ffffff;fill-opacity:1;stroke:#ffffff;stroke-width:30.54319572;stroke-miterlimit:4;stroke-dasharray:none;stroke-dashoffset:0;stroke-opacity:1" />
      <path
         transform="scale(0.26458333)"
         inkscape:connector-curvature="0"
         id="path1002"
         d="m 1781.6755,376.14209 c -11.9701,-12.22285 -28.0602,-38.42017 -35.7557,-58.21628 -19.7826,-50.88931 -32.3897,-51.29646 -32.3897,-1.046 0,37.22247 -1.7072,41.07669 -18.1828,41.04932 -24.2769,-0.0403 -66.5976,-26.58596 -83.4923,-52.37062 -18.6568,-28.47383 -11.6343,-98.62803 16.1323,-161.16019 25.6235,-57.705805 16.9826,-75.691927 -16.3154,-33.96084 -25.247,31.64107 -35.1886,27.01608 -35.3988,-16.468133 -0.1714,-35.437154 23.4349,-86.5156705 67.5359,-146.13194 34.3257,-46.401994 53.5586,-61.860017 53.5586,-43.046441 0,19.934951 49.1424,61.400681 107.6029,90.7940727 60.9565,30.6483193 68.545,32.4855033 122.8539,29.7430203 46.9648,-2.371604 64.3785,-7.22057 92.3088,-25.70401025 l 34.4244,-22.78099275 19.8705,18.6673445 c 35.9282,33.7527925 75.5657,126.4402695 76.6644,179.2701995 1.0517,50.57404 -10.6311,74.44209 -51.3,104.8058 -18.1901,13.58087 -24.5501,14.33549 -50.0083,5.93352 -34.639,-11.4319 -38.8566,-33.68882 -8.9647,-47.30848 26.7957,-12.20895 26.5746,-33.79529 -0.3462,-33.79529 -24.9447,0 -100.669,67.69839 -100.669,89.99928 0,18.24614 10.5532,19.43071 24.4057,2.73947 15.555,-18.74269 18.6851,-8.21773 5.2422,17.62704 -17.5179,33.67923 -45.714,57.17156 -85.4423,71.18852 -51.7063,18.24306 -77.2455,15.79023 -102.3344,-9.82837 z"
         style="fill:#ffffff;fill-opacity:1;stroke:#ffffff;stroke-width:30.54319572;stroke-miterlimit:4;stroke-dasharray:none;stroke-dashoffset:0;stroke-opacity:1" />
      <path
         transform="scale(0.26458333)"
         inkscape:connector-curvature="0"
         id="path1000"
         d="m 4532.3133,-624.49583 c -81.6322,-25.30469 -131.0805,-112.7211 -104.0212,-183.89232 7.3384,-19.30152 10.0223,-17.48245 94.3984,63.98027 50.558,48.81224 98.0517,87.54507 113.6652,92.69798 45.2529,14.9348 35.7026,22.63891 -43.8909,35.4064 -12.2228,1.96065 -39.291,-1.7259 -60.1515,-8.19233 z"
         style="fill:#ffffff;fill-opacity:1;stroke:#ffffff;stroke-width:30.54319572;stroke-miterlimit:4;stroke-dasharray:none;stroke-dashoffset:0;stroke-opacity:1" />
      <path
         transform="scale(0.26458333)"
         inkscape:connector-curvature="0"
         id="path990"
         d="m 3467.1549,-489.86167 c -55.1194,-18.08862 -88.8934,-33.82386 -88.8934,-41.41523 0,-3.1839 17.9477,-13.50983 39.8839,-22.94651 65.1547,-28.02881 123.5443,-20.07222 150.0977,20.45343 6.8318,10.42663 17.7925,18.95752 24.357,18.95752 14.9199,0 14.8816,-3.18683 -0.3938,-32.72619 -13.7986,-26.68349 -13.8125,-26.6777 36.411,-15.10533 39.2517,9.04426 94.6004,45.93409 83.6781,55.77129 -3.7095,3.34094 -24.6659,12.01262 -46.5699,19.27039 -52.128,17.27236 -142.1758,16.24778 -198.5706,-2.25937 z"
         style="fill:#ffffff;fill-opacity:1;stroke:#ffffff;stroke-width:30.54319572;stroke-miterlimit:4;stroke-dasharray:none;stroke-dashoffset:0;stroke-opacity:1" />
      <path
         transform="scale(0.26458333)"
         inkscape:connector-curvature="0"
         id="path906"
         d="m 4194.0604,-464.47698 c -35.283,-3.86529 -58.027,-11.07248 -99.5,-31.52992 l -28.7894,-14.20096 0.1498,-67.92225 c 0.082,-37.35723 0.7642,-71.85876 1.5152,-76.67005 l 1.3655,-8.7478 23.2335,16.49259 c 28.8122,20.45271 43.5536,28.77911 64.4598,36.40892 31.0852,11.3447 42.2416,13.08142 84.0326,13.08142 56.3576,0 84.4556,-7.02097 142.8949,-35.7057 17.7176,-8.69665 33.01,-15.81208 33.9832,-15.81208 0.9731,0 19.0976,12.83669 40.2767,28.52597 25.6127,18.97367 37.9396,29.2907 36.8119,30.80966 -37.0212,49.86509 -76.6395,85.61897 -116.5859,105.21418 -20.0306,9.82575 -27.9575,11.76716 -66.6701,16.32852 -25.8846,3.04989 -101.4275,5.45295 -117.1777,3.7275 z"
         style="fill:#000000;fill-opacity:1;stroke:#000000;stroke-width:7.63579893;stroke-miterlimit:4;stroke-dasharray:none;stroke-dashoffset:0;stroke-opacity:1" />
      <path
         transform="scale(0.26458333)"
         inkscape:connector-curvature="0"
         id="path908"
         d="m 1896.9309,-109.72109 c -9.9539,-1.70676 -14.7378,-4.70471 -23.104,-14.47868 -10.503,-12.27043 -15.3912,-29.66883 -16.6335,-59.20272 -0.9336,-22.19554 -0.5131,-26.20645 4.9778,-47.47717 6.5059,-25.20322 22.9295,-71.65656 37.7364,-106.73603 24.1314,-57.17021 58.5881,-104.51475 122.2868,-168.02546 77.4845,-77.25579 180.7242,-157.42254 265.2228,-205.94833 29.9261,-17.18594 79.9449,-41.14432 99.4377,-47.62947 20.8434,-6.93445 45.4407,-8.80369 58.2799,-4.42891 14.0061,4.77235 27.5276,14.94894 31.0674,23.382 4.0433,9.63236 2.5278,43.93648 -2.49,56.36581 -7.1123,17.61729 -41.3727,41.48396 -148.972,103.77782 -61.2783,35.47667 -79.5604,47.05122 -110.0913,69.69983 -103.9069,77.08061 -169.7398,164.30127 -220.9068,292.67472 -28.5698,71.67928 -43.4449,94.63839 -67.5167,104.20944 -9.0122,3.58326 -21.3116,5.1859 -29.2945,3.81715 z"
         style="fill:#000000;fill-opacity:1;stroke:#000000;stroke-width:7.63579893;stroke-miterlimit:4;stroke-dasharray:none;stroke-dashoffset:0;stroke-opacity:1" />
      <path
         transform="scale(0.26458333)"
         inkscape:connector-curvature="0"
         id="path910"
         d="m 2841.1514,1019.8293 c -12.94,-4.9767 -35.2779,-25.05971 -40.8604,-36.73589 -4.9309,-10.31341 -8.5036,-34.2274 -15.314,-102.50561 -13.7471,-137.82285 -16.6927,-218.03615 -8.4221,-229.34695 2.2699,-3.10428 5.3599,-1.95395 33.6839,12.53965 45.918,23.49656 72.141,38.98635 81.7288,48.27678 10.4072,10.08434 16.2487,24.73745 19.0172,47.70338 3.6079,29.92876 6.6549,109.03013 5.7888,150.28319 -0.8194,39.03175 -1.0425,40.82283 -7.4022,59.43737 -9.4989,27.80259 -19.8782,46.30778 -28.5204,50.84908 -9.251,4.8612 -26.3169,4.6459 -39.6996,-0.501 z"
         style="fill:#000000;fill-opacity:1;stroke:#000000;stroke-width:7.63579893;stroke-miterlimit:4;stroke-dasharray:none;stroke-dashoffset:0;stroke-opacity:1" />
      <path
         transform="scale(0.26458333)"
         inkscape:connector-curvature="0"
         id="path912"
         d="m 3273.4978,1026.2142 c -15.0255,-9.1621 -25.4216,-32.60837 -29.1049,-65.63996 -1.7163,-15.39264 -1.5058,-29.86594 0.9672,-66.49818 1.7386,-25.7528 4.9718,-80.91594 7.185,-122.58473 4.2475,-79.97305 7.3428,-128.68842 9.4094,-148.09266 1.0857,-10.19414 2.1177,-12.38509 7.9173,-16.80866 27.2613,-20.79321 129.1091,-73.20488 133.5751,-68.73883 7.2678,7.26774 2.3882,137.34277 -9.6361,256.87365 -12.6957,126.20432 -27.9169,180.61964 -59.4064,212.37597 -21.3415,21.5222 -44.8551,28.9012 -60.9066,19.1134 z"
         style="fill:#000000;fill-opacity:1;stroke:#000000;stroke-width:7.63579893;stroke-miterlimit:4;stroke-dasharray:none;stroke-dashoffset:0;stroke-opacity:1" />
      <path
         transform="scale(0.26458333)"
         inkscape:connector-curvature="0"
         id="path914"
         d="m 3717.2074,-545.21852 c -12.5614,-13.47302 -54.5705,-31.35874 -94.0589,-40.04626 -12.036,-2.64795 -52.4103,-5.11766 -114.7303,-7.01809 l -96.159,-2.93233 -35.2696,22.8955 -35.2696,22.89551 -20.9701,-20.60548 c -40.4778,-39.77415 -79.8229,-96.21016 -107.9844,-154.89119 -15.2112,-31.69628 -30.8255,-83.5747 -29.108,-96.71174 0.9095,-6.95687 1.4379,-6.78463 47.9246,15.62034 25.8528,12.46012 62.344,28.49092 81.0917,35.624 83.6202,31.81574 204.6352,52.68078 283.3319,48.85125 39.2974,-1.91229 63.3867,-6.14327 126.1575,-22.15803 24.5961,-6.2752 45.9034,-11.01505 47.3495,-10.53299 1.4462,0.48205 -5.1917,16.27337 -14.7509,35.09182 -20.447,40.2525 -21.7632,46.50336 -25.8113,122.59117 -1.6664,31.32099 -3.4342,57.35163 -3.9284,57.84589 -0.4943,0.49423 -4.0109,-2.43949 -7.8147,-6.51937 z"
         style="fill:#000000;fill-opacity:1;stroke:#000000;stroke-width:10.79865074;stroke-miterlimit:4;stroke-dasharray:none;stroke-dashoffset:0;stroke-opacity:1" />
      <path
         transform="scale(0.26458333)"
         inkscape:connector-curvature="0"
         id="path1008"
         d="m 3617.2636,1331.924 c -98.1192,-7.9001 -176.7767,-25.078 -176.7767,-38.6059 0,-4.776 38.7316,-42.4349 65.6599,-63.8413 61.9329,-49.233 112.2525,-74.92 180.5345,-92.1586 39.6317,-10.0054 70.9348,-14.468 109.3793,-15.593 40.6166,-1.1885 55.9264,1.0903 78.2664,11.6497 29.3673,13.8812 63.1848,56.9516 63.1352,80.4099 -0.034,16.2579 -15.6499,43.0927 -34.9746,60.103 -24.7322,21.7701 -68.6329,33.2424 -195.3205,51.0422 -44.6585,6.2745 -72.2143,8.4182 -89.9035,6.994 z"
         style="fill:#ffffff;fill-opacity:1;stroke:#ffffff;stroke-width:7.63579893;stroke-miterlimit:4;stroke-dasharray:none;stroke-dashoffset:0;stroke-opacity:1" />
      <path
         transform="scale(0.26458333)"
         inkscape:connector-curvature="0"
         id="path1010"
         d="m 3489.3843,1114.6254 c -3.886,-3.8859 -2.9176,-6.6951 5.1764,-15.0157 34.112,-35.0668 115.5572,-79.412 155.6072,-84.7249 12.5992,-1.6713 27.1424,3.6006 22.527,8.1661 -1.5969,1.5796 -15.2455,7.3778 -30.3302,12.8849 -38.2449,13.9623 -71.317,31.0854 -109.5427,56.7159 -34.9,23.4006 -39.6221,25.7894 -43.4377,21.9737 z"
         style="fill:#ffffff;fill-opacity:1;stroke:#ffffff;stroke-width:7.63579893;stroke-miterlimit:4;stroke-dasharray:none;stroke-dashoffset:0;stroke-opacity:1" />
      <path
         transform="scale(0.26458333)"
         inkscape:connector-curvature="0"
         id="path1012"
         d="m 3447.0529,1087.397 c -2.5002,-1.744 -4.5457,-4.8345 -4.5457,-6.8679 0,-9.4593 36.4298,-35.312 72.3777,-51.3635 40.7753,-18.207 91.267,-34.27779 91.267,-29.049 0,2.3055 -9.8907,8.3481 -42.4264,25.9201 -28.2309,15.247 -53.4317,31.2569 -82.558,52.4485 -18.0863,13.1592 -25.3177,15.0482 -34.1146,8.9118 z"
         style="fill:#ffffff;fill-opacity:1;stroke:#ffffff;stroke-width:7.63579893;stroke-miterlimit:4;stroke-dasharray:none;stroke-dashoffset:0;stroke-opacity:1" />
      <path
         transform="scale(0.26458333)"
         inkscape:connector-curvature="0"
         id="path1014"
         d="m 3404.1214,1064.5898 c 0,-6.1851 23.1181,-29.3799 41.2068,-41.3435 33.4346,-22.1131 78.8912,-41.64663 96.5301,-41.48083 l 8.7352,0.0821 -6.4022,5.47374 c -3.5212,3.01055 -21.7039,13.65599 -40.4061,23.65649 -18.7021,10.0005 -45.2253,25.7034 -58.9403,34.8954 -35.5399,23.8193 -40.7235,26.2017 -40.7235,18.7166 z"
         style="fill:#ffffff;fill-opacity:1;stroke:#ffffff;stroke-width:7.63579893;stroke-miterlimit:4;stroke-dasharray:none;stroke-dashoffset:0;stroke-opacity:1" />
      <path
         transform="scale(0.26458333)"
         inkscape:connector-curvature="0"
         id="path1016"
         d="m 3378.8676,1280.8149 c -28.5248,-10.2192 -78.8133,-37.2536 -122.2285,-65.7081 -66.7287,-43.7344 -113.8684,-89.7017 -126.4619,-123.3168 -5.5119,-14.7127 -4.8039,-30.6351 1.8686,-42.0208 8.6776,-14.8071 56.0605,-50.03562 71.4343,-53.11039 5.3334,-1.06667 6.8749,-0.30944 11.2604,5.53139 2.7946,3.722 7.4875,11.5729 10.4287,17.4464 7.1773,14.3333 17.4522,25.3158 29.0038,31.0013 8.4166,4.1425 12.5044,4.6995 34.791,4.7403 24.2907,0.044 25.7768,-0.2014 38.9668,-6.4491 24.4152,-11.5646 47.0729,-37.6875 59.9584,-69.12823 4.038,-9.85273 6.6229,-13.49561 10.3059,-14.52435 13.2716,-3.70694 86.0697,-1.09778 90.4078,3.2403 2.1066,2.10656 -5.3994,7.98134 -23.7436,18.58364 -38.975,22.52614 -65.8049,43.24354 -79.8279,61.64104 -13.9282,18.2732 -10.4082,23.8635 27.0057,42.8881 14.2508,7.2465 36.8718,20.4177 50.2688,29.2695 27.1644,17.9483 35.0786,22.4087 39.7604,22.4087 1.7552,0 7.937,-4.6257 13.7374,-10.2794 12.7024,-12.381 28.0071,-23.4167 54.9929,-39.6533 56.1154,-33.7631 96.1374,-47.1231 141.8217,-47.3422 26.1839,-0.1256 33.1977,2.3149 75.361,26.2228 l 9.0914,5.155 -35.3553,4.713 c -58.8782,7.8485 -83.4542,16.1933 -159.7034,54.2271 -85.8342,42.8149 -135.7838,77.4679 -171.3022,118.8427 -15.4273,17.9709 -30.3355,29.6413 -37.5414,29.388 -2.3096,-0.081 -8.745,-1.7761 -14.3008,-3.7666 z"
         style="fill:#ffffff;fill-opacity:1;stroke:#ffffff;stroke-width:7.63579893;stroke-miterlimit:4;stroke-dasharray:none;stroke-dashoffset:0;stroke-opacity:1" />
      <path
         transform="scale(0.26458333)"
         inkscape:connector-curvature="0"
         id="path1018"
         d="m 3611.2027,1415.9149 c -100.4397,-13.5587 -252.2124,-75.4105 -360.6245,-146.9649 -33.7716,-22.29 -83.5953,-73.4828 -102.7356,-105.5588 -8.4603,-14.1779 -3.4995,-11.0403 37.0757,23.4498 76.3251,64.8786 188.3893,120.7754 296.9848,148.1339 105.2438,26.5141 143.7404,28.8809 250.5179,15.4021 87.3246,-11.0232 147.1536,-27.5416 180.8173,-49.9226 6.1114,-4.0631 17.8204,-14.2637 26.0201,-22.668 19.9684,-20.4669 22.3087,-20.1134 18.4462,2.7858 -4.5409,26.9215 -21.2079,51.5995 -45.9333,68.0113 -31.1428,20.6714 -125.6284,52.823 -189.4519,64.4667 -21.5898,3.9388 -90.08,5.7045 -111.1167,2.8647 z"
         style="fill:#ffffff;fill-opacity:1;stroke:#ffffff;stroke-width:7.63579893;stroke-miterlimit:4;stroke-dasharray:none;stroke-dashoffset:0;stroke-opacity:1" />
      <path
         transform="scale(0.26458333)"
         inkscape:connector-curvature="0"
         id="path1020"
         d="m 2703.4952,1285.6038 c -2.486,-1.7412 -9.0873,-9.9343 -14.6695,-18.2069 -32.338,-47.9227 -81.7057,-94.1569 -146.3644,-137.0742 -48.5208,-32.2057 -78.4489,-47.5978 -132.1894,-67.9855 -31.2471,-11.8543 -38.1712,-15.7161 -35.6097,-19.8606 2.1313,-3.4486 23.0198,-17.1395 36.5849,-23.9787 20.7361,-10.4548 33.4497,-13.2153 55.3217,-12.0119 39.5947,2.1784 86.0956,25.7475 130.5211,66.1551 11.0674,10.0665 23.8193,20.5271 28.3374,23.2457 l 8.2148,4.943 14.0141,-3.8835 c 17.0531,-4.7256 62.4099,-21.7309 77.6427,-29.1099 13.4955,-6.5375 16.7894,-9.0151 20.0018,-15.0451 2.1246,-3.988 1.7651,-5.8718 -2.5134,-13.1725 -6.7235,-11.4729 -23.3851,-29.9209 -52.7012,-58.35193 l -24.3862,-23.65 41.8649,-0.0886 41.8649,-0.0886 3.2646,11.61675 c 9.0676,32.26588 11.3128,38.60698 16.6363,46.98578 7.1512,11.2557 18.8159,21.6397 29.7332,26.469 22.9656,10.1588 54.8043,13.9029 77.4735,9.1107 25.0426,-5.294 38.0235,-15.3718 50.8872,-39.5066 8.2254,-15.43239 12.0645,-16.70207 27.5676,-9.1171 22.3997,10.9591 48.3684,43.538 53.1803,66.7171 3.1692,15.2657 -0.5085,22.3768 -22.9227,44.3223 -44.0376,43.1171 -137.2912,110.3777 -196.3112,141.5928 -17.0008,8.9915 -74.9358,33.1393 -79.5073,33.1393 -0.7788,0 -3.45,-1.4246 -5.936,-3.1659 z"
         style="fill:#ffffff;fill-opacity:1;stroke:#ffffff;stroke-width:7.63579893;stroke-miterlimit:4;stroke-dasharray:none;stroke-dashoffset:0;stroke-opacity:1" />
      <path
         transform="scale(0.26458333)"
         inkscape:connector-curvature="0"
         id="path1022"
         d="m 2435.3162,1316.9471 c -29.5898,-2.8743 -58.6831,-12.6588 -102.0261,-34.3126 -43.0864,-21.5256 -77.8735,-48.6093 -93.1815,-72.5471 -4.926,-7.7029 -5.7417,-11.0113 -5.7286,-23.2335 0.037,-34.6032 6.9032,-54.456 24.4534,-70.7043 17.2055,-15.9293 52.4313,-38.849 65.5846,-42.6728 18.407,-5.351 36.7467,-1.0774 87.7336,20.4445 102.1762,43.1292 173.4071,89.7826 233.5087,152.9391 19.3218,20.3039 29.1309,34.1595 29.1309,41.1481 0,13.6784 -40.0808,23.7779 -114.813,28.9305 -34.7526,2.3961 -100.0346,2.4003 -124.662,0.01 z"
         style="fill:#ffffff;fill-opacity:1;stroke:#ffffff;stroke-width:7.63579893;stroke-miterlimit:4;stroke-dasharray:none;stroke-dashoffset:0;stroke-opacity:1" />
      <path
         transform="scale(0.26458333)"
         inkscape:connector-curvature="0"
         id="path1024"
         d="m 2365.5804,1393.7413 c -80.2624,-7.1601 -151.4984,-42.4025 -172.5079,-85.3444 -12.008,-24.5434 -11.3805,-49.1228 2.3329,-91.3845 l 7.6494,-23.5737 11.1093,19.5832 c 29.9,52.7073 67.4855,77.4925 168.6931,111.242 66.4883,22.1717 81.6565,25.015 133.7679,25.075 70.4611,0.081 154.6624,-16.1802 198.5826,-38.351 6.8472,-3.4565 27.1468,-12.6708 45.1104,-20.4764 74.8596,-32.5283 94.8541,-45.0612 180.1433,-112.9178 33.5023,-26.6547 65.5517,-50.3503 68.1853,-50.4125 0.8333,-0.02 1.5152,1.6824 1.5152,3.7825 0,10.3473 -40.9814,53.3324 -81.8224,85.8229 -54.4288,43.3001 -106.3131,73.2829 -163.6447,94.5665 -32.1446,11.9332 -176.8335,51.9847 -242.4366,67.109 -40.4905,9.3348 -61.5767,12.8148 -92.7223,15.3027 -28.585,2.2834 -38.1348,2.2799 -63.9555,-0.024 z"
         style="fill:#ffffff;fill-opacity:1;stroke:#ffffff;stroke-width:7.63579893;stroke-miterlimit:4;stroke-dasharray:none;stroke-dashoffset:0;stroke-opacity:1" />
      <path
         transform="scale(0.26458333)"
         inkscape:connector-curvature="0"
         id="path1026"
         d="m 2633.375,1069.1626 c -3.3335,-1.8001 -24.6982,-15.474 -47.4772,-30.3866 -22.7789,-14.9126 -51.6873,-32.1228 -64.2407,-38.2449 -19.6043,-9.56067 -22.4671,-11.5618 -20.2911,-14.1837 4.5878,-5.52804 26.5202,-2.72154 44.1257,5.6464 27.6275,13.1314 86.8459,52.673 101.0153,67.4504 6.8395,7.1331 6.9426,7.4691 3.1494,10.2637 -4.9835,3.6715 -8.7029,3.5469 -16.2814,-0.5453 z"
         style="fill:#ffffff;fill-opacity:1;stroke:#ffffff;stroke-width:7.63579893;stroke-miterlimit:4;stroke-dasharray:none;stroke-dashoffset:0;stroke-opacity:1" />
      <path
         transform="scale(0.26458333)"
         inkscape:connector-curvature="0"
         id="path1028"
         d="m 2664.6912,1050.8788 c -29.7242,-22.702 -60.071,-43.4514 -86.6542,-59.24925 -25.0025,-14.85844 -27.9365,-17.1433 -23.9529,-18.65314 9.571,-3.62761 30.5208,-0.63642 44.1374,6.30192 16.5139,8.41462 45.5977,29.21587 60.5697,43.32037 17.8634,16.8284 29.6849,37.8766 21.2731,37.8766 -1.5446,0 -8.4624,-4.3184 -15.3731,-9.5965 z"
         style="fill:#ffffff;fill-opacity:1;stroke:#ffffff;stroke-width:7.63579893;stroke-miterlimit:4;stroke-dasharray:none;stroke-dashoffset:0;stroke-opacity:1" />
      <path
         transform="scale(0.26458333)"
         inkscape:connector-curvature="0"
         id="path1030"
         d="m 2707.9125,1050.4186 c -2.3399,-0.9457 -7.7947,-6.0019 -12.1218,-11.236 -17.4912,-21.1576 -31.1137,-34.5388 -51.3418,-50.43264 -19.6994,-15.47839 -28.6941,-25.47521 -25.6555,-28.51382 2.0417,-2.04169 25.6061,10.07048 41.3637,21.26107 17.5605,12.47089 54.1312,47.11629 58.3535,55.28129 2.6897,5.2013 2.6686,6.3439 -0.1979,10.7187 -3.4863,5.3208 -4.0626,5.4826 -10.4002,2.9214 z"
         style="fill:#ffffff;fill-opacity:1;stroke:#ffffff;stroke-width:7.63579893;stroke-miterlimit:4;stroke-dasharray:none;stroke-dashoffset:0;stroke-opacity:1" />
      <path
         transform="scale(0.26458333)"
         inkscape:connector-curvature="0"
         id="path1006"
         d="m 2877.2258,666.03946 c -55.5584,-30.20582 -171.9279,-96.71192 -258.599,-147.79138 -86.6711,-51.07937 -196.7509,-115.69131 -244.6218,-143.58195 -47.8709,-27.89071 -90.5436,-57.26062 -94.8282,-65.26644 -7.6552,-14.30376 -15.811,-111.3243 -32.2623,-383.785639 -4.5623,-75.559411 -14.4532,-195.131171 -21.9797,-265.715051 l -13.6847,-128.3343 23.5695,-18.79361 c 12.9632,-10.33653 61.8935,-39.60234 108.734,-65.03524 46.8405,-25.43281 100.9827,-56.92726 120.3161,-69.98773 62.2091,-42.02461 72.7774,-106.06189 24.2434,-146.90058 -49.4134,-41.57861 -126.9773,-20.496 -277.2361,75.35536 -32.0321,20.43352 -41.3168,23.29476 -46.3583,14.28614 -3.4673,-6.19571 -20.5822,-92.58832 -38.0331,-191.98378 -81.3321,-463.24436 -117.3642,-632.02346 -179.6428,-841.47156 -35.4573,-119.2461 -35.0725,-128.4876 5.7772,-138.7402 11.1287,-2.7931 86.4379,-34.4905 167.3538,-70.4386 222.325,-98.7712 719.4583,-298.4317 726.1821,-291.6518 16.8505,16.9906 34.9879,267.9198 55.3388,765.6035 8.9056,217.7889 19.7469,454.16458 24.0918,525.27931 4.3449,71.11474 11.7074,227.48636 16.3612,347.49248 18.3827,474.02313 48.1354,1175.11546 52.3853,1234.40641 3.4242,47.77003 2.0477,62.55171 -5.8013,62.30192 -5.6599,-0.18021 -55.7475,-25.04144 -111.3059,-55.24726 z"
         style="fill:#ffffff;fill-opacity:1;stroke:#ffffff;stroke-width:30.54319572;stroke-miterlimit:4;stroke-dasharray:none;stroke-dashoffset:0;stroke-opacity:1" />
      <path
         transform="scale(0.26458333)"
         inkscape:connector-curvature="0"
         id="path998"
         d="m 4667.5517,-688.28263 c -45.9316,-12.32801 -72.0372,-38.378 -64.1685,-64.03184 2.8774,-9.38104 5.9186,-17.89212 6.7582,-18.91351 0.8396,-1.02139 34.0259,-4.24608 73.7474,-7.16597 73.6999,-5.41761 133.5715,-23.1331 211.3034,-62.5228 l 41.5354,-21.04761 5.1035,23.23624 c 12.342,56.19273 -43.7661,119.16785 -129.8675,145.76188 -61.2612,18.92163 -88.1186,19.79268 -144.4119,4.68361 z"
         style="fill:#ffffff;fill-opacity:1;stroke:#ffffff;stroke-width:30.54319572;stroke-miterlimit:4;stroke-dasharray:none;stroke-dashoffset:0;stroke-opacity:1" />
      <path
         transform="scale(0.26458333)"
         inkscape:connector-curvature="0"
         id="path996"
         d="m 4586.4039,-825.50175 c -17.7787,-6.54366 -40.8717,-21.76452 -51.3178,-33.82412 -15.6475,-18.06442 -18.0978,-27.52437 -13.911,-53.70722 2.7951,-17.47936 10.2957,-41.86301 16.6682,-54.18587 l 11.5861,-22.40522 46.7716,11.45277 c 61.7085,15.11034 199.8418,17.63671 237.6908,4.34719 16.1122,-5.6573 47.0112,-22.88186 68.6645,-38.27678 21.6533,-15.3949 42.1087,-27.9908 45.4564,-27.9908 12.664,0 5.5596,69.45588 -9.6571,94.41169 -19.4495,31.89778 -83.7379,83.39764 -135.2983,108.38414 -49.3311,23.90617 -166.427,30.28067 -216.6534,11.79422 z"
         style="fill:#ffffff;fill-opacity:1;stroke:#ffffff;stroke-width:30.54319572;stroke-miterlimit:4;stroke-dasharray:none;stroke-dashoffset:0;stroke-opacity:1" />
      <path
         transform="scale(0.26458333)"
         inkscape:connector-curvature="0"
         id="path992"
         d="m 4605.4233,-1012.371 c -47.0275,-14.4774 -87.7098,-57.9466 -87.7098,-93.7182 0,-41.5352 28.0547,-76.3618 83.3301,-103.4448 91.8516,-45.0041 172.2297,-49.3993 278.3088,-15.2187 73.4627,23.671 92.8987,61.8607 59.4224,116.7588 -22.0628,36.1811 -73.4879,84.4502 -103.6138,97.2551 -34.6075,14.70984 -180.0092,13.67681 -229.7377,-1.6322 z"
         style="fill:#ffffff;fill-opacity:1;stroke:#ffffff;stroke-width:30.54319572;stroke-miterlimit:4;stroke-dasharray:none;stroke-dashoffset:0;stroke-opacity:1" />
      <path
         transform="scale(0.26458333)"
         inkscape:connector-curvature="0"
         id="path994"
         d="m 4505.555,-811.10794 c -72.6133,-89.14042 -79.8535,-117.77454 -77.6432,-307.07146 1.981,-169.6654 2.1583,-168.9779 -73.108,-283.3364 -52.9395,-80.4353 -55.041,-92.949 -22.5474,-134.258 12.067,-15.3407 24.2943,-21.4672 42.602,-21.3456 33.2155,0.2205 131.7727,35.0176 152.6455,53.8938 64.3614,58.2048 61.3656,182.1689 -5.3536,221.5343 -38.3082,22.6024 -36.1396,31.4878 7.6851,31.4878 20.001,0 36.3655,1.7226 36.3655,3.8279 0,2.1054 -16.1374,19.9654 -35.8609,39.6888 -54.6764,54.6765 -62.2378,103.0019 -26.7224,170.7854 10.8674,20.7412 10.5875,26.0793 -2.9289,55.83864 -28.0328,61.72059 -13.6806,123.2606 38.4464,164.85281 27.7161,22.11469 36.2816,49.87966 15.3879,49.87966 -6.4228,0 -28.4584,-20.59994 -48.968,-45.77765 z"
         style="fill:#ffffff;fill-opacity:1;stroke:#ffffff;stroke-width:30.54319572;stroke-miterlimit:4;stroke-dasharray:none;stroke-dashoffset:0;stroke-opacity:1" />
      <path
         transform="scale(0.26458333)"
         inkscape:connector-curvature="0"
         id="path988"
         d="m 3411.6184,-908.42367 c -59.0678,-29.09973 -138.8109,-163.36843 -153.8373,-259.02573 -9.0203,-57.4229 -0.2074,-130.6357 19.3108,-160.4244 33.9597,-51.829 138.1107,-24.852 181.8723,47.1081 54.2077,89.1374 76.7015,251.7767 45.8729,331.67988 -21.2359,55.0403 -43.9351,64.94174 -93.2187,40.66215 z m 61.5474,-57.48658 c 14.6698,-9.31605 25.4767,-78.42585 17.6754,-113.03365 -12.8735,-57.1084 -71.5906,-77.9196 -103.912,-36.8296 -50.075,63.66 22.7347,190.18996 86.2366,149.86325 z"
         style="fill:#ffffff;fill-opacity:1;stroke:#ffffff;stroke-width:30.54319572;stroke-miterlimit:4;stroke-dasharray:none;stroke-dashoffset:0;stroke-opacity:1" />
      <path
         transform="scale(0.26458333)"
         inkscape:connector-curvature="0"
         id="path986"
         d="m 3645.128,-918.68719 c -40.9135,-40.91354 -62.3368,-148.44531 -48.1804,-241.83591 14.2153,-93.7789 35.5845,-143.012 74.2208,-171.0001 38.9203,-28.1937 92.658,-32.7575 112.9677,-9.594 61.4755,70.1135 60.0149,224.2061 -3.2504,342.90385 -44.6466,83.76566 -99.4277,115.85614 -135.7577,79.52616 z m 56.21,-48.58138 c 21.5312,-11.52316 43.797,-74.91283 37.4538,-106.62913 -6.6617,-33.3083 -34.6747,-63.1687 -59.2606,-63.1687 -10.5389,0 -28.0877,8.926 -38.9974,19.8357 -23.6306,23.6307 -26.5764,69.6065 -7.4004,115.5011 17.5326,41.96136 36.3885,51.4885 68.2046,34.46103 z"
         style="fill:#ffffff;fill-opacity:1;stroke:#ffffff;stroke-width:30.54319572;stroke-miterlimit:4;stroke-dasharray:none;stroke-dashoffset:0;stroke-opacity:1" />
      <path
         transform="scale(0.26458333)"
         inkscape:connector-curvature="0"
         id="path984"
         d="m 3016.0413,529.68527 c -19.4166,-340.14697 -25.7377,-486.494312 -37.7847,-874.7921 -6.688,-215.56655 -15.6464,-442.85088 -19.9076,-505.07627 -4.2613,-62.2254 -13.3158,-273.1453 -20.1213,-468.7108 -13.7085,-393.9376 -25.4939,-632.8133 -39.6208,-803.0679 l -9.3709,-112.9368 76.8274,-5.8039 c 97.5749,-7.3713 343.3441,0.9026 484.9291,16.3252 60.003,6.536 209.1015,15.6885 331.33,20.3389 122.2285,4.6504 252.6795,10.6093 289.8913,13.242 l 67.6578,4.7868 -5.2015,37.578 c -30.814,222.611 -77.5283,717.7812 -89.3129,946.7154 -2.631,51.1137 -10.2456,307.49045 -16.9211,569.72605 -14.1017,553.963449 -24.9404,851.56166 -31.6513,869.04999 -2.6132,6.8098 -47.3905,28.36266 -99.5053,47.89513 -52.1147,19.53255 -136.5743,53.43965 -187.688,75.3493 -149.4891,64.07761 -523.1303,250.64632 -600.539,299.86475 -39.1705,24.90551 -73.8649,45.28279 -77.0986,45.28279 -3.2336,0 -10.3943,-79.09494 -15.9126,-175.76654 z m 704.6306,-1006.80393 c 60.887,-30.11733 118.2191,-72.31811 118.2191,-87.01825 0,-12.58909 -24.9172,-7.86505 -49.0123,9.29219 l -23.223,16.53628 -5.3256,-21.21887 c -8.7404,-34.82416 3.796,-109.96876 25.956,-155.58377 15.0173,-30.91237 33.387,-51.9452 66.4825,-76.12081 25.1524,-18.37339 57.9968,-43.98027 72.9876,-56.90432 19.4736,-16.78874 29.7418,-21.01255 35.9614,-14.79292 14.7846,14.7846 21.6354,9.74814 21.6354,-15.90554 0,-15.35528 -7.4599,-32.07088 -19.8358,-44.44671 -25.6516,-25.65173 -69.0576,-27.79689 -69.0576,-3.41294 0,9.53818 7.4502,19.17892 17.772,22.99713 16.5953,6.13906 15.124,8.51018 -22.2234,35.81468 -57.6061,42.1156 -129.665,75.89219 -194.0606,90.96327 -72.4859,16.96442 -241.4403,12.48815 -321.3372,-8.51341 -94.2549,-24.77581 -245.7939,-109.19716 -196.0123,-109.19716 21.6407,0 15.3252,-31.38197 -7.4666,-37.10234 -36.1456,-9.07198 -79.1691,31.20151 -89.7272,83.99176 -6.4544,32.27195 13.7025,36.37397 27.7065,5.63851 13.3187,-29.23139 23.7748,-24.93639 34.4288,14.14213 36.6698,134.50464 61.874,183.41413 131.4357,255.05431 46.9726,48.3762 114.2679,92.20785 177.1045,115.35408 33.4077,12.30593 59.5369,15.16231 123.6435,13.51633 75.9244,-1.94943 85.4161,-4.13088 143.9486,-33.08363 z m -241.6117,-404.77806 c 18.3748,-7.67748 33.744,-23.15124 46.1532,-46.46702 16.3247,-30.67259 18.5269,-45.85018 17.9705,-123.84986 -0.523,-73.3006 -4.4019,-100.3619 -22.1134,-154.2741 -38.3342,-116.6854 -88.2113,-166.2759 -172.6445,-171.6522 -48.749,-3.1042 -51.7969,-2.1591 -78.2009,24.2448 -79.4621,79.4621 -45.7371,292.6803 65.1348,411.80024 33.0465,35.50484 87.3951,70.90123 109.8312,71.53124 3.4763,0.0978 18.7174,-5.00227 33.8691,-11.3331 z m 237.8143,-8.2797 c 72.4036,-37.44134 138.3989,-174.58758 137.9814,-286.74258 -0.3548,-95.2373 -26.0897,-170.6242 -65.1406,-190.8182 -49.1772,-25.4305 -131.6874,-3.9603 -166.6824,43.3731 -22.7734,30.8026 -41.2198,87.5168 -51.9666,159.7734 -16.4891,110.8644 16.0935,238.50797 69.1389,270.85483 29.9934,18.28982 46.6853,19.06481 76.6693,3.55945 z m -506.3481,-473.89508 c 78.278,-67.6425 91.7545,-75.2374 155.6132,-87.6975 64.2489,-12.5363 91.9057,-23.8498 101.3241,-41.4482 11.8212,-22.0881 9.4079,-38.1936 -8.39,-55.9915 -21.0662,-21.0662 -59.782,-20.7804 -117.6436,0.8684 -75.2352,28.1491 -198.3697,154.8829 -210.7817,216.9431 -3.1938,15.9686 -1.6744,24.6251 4.3221,24.6251 5.086,0 39.0861,-25.7847 75.5559,-57.2994 z m 701.0956,16.6247 c 0,-4.5925 -9.2159,-26.5367 -20.4798,-48.765 -42.7135,-84.291 -136.2922,-147.2246 -218.9147,-147.2246 -52.7754,0 -72.5711,14.0931 -64.5707,45.9695 7.3711,29.3687 33.551,43.6254 96.4738,52.5364 67.8665,9.611 113.8447,31.3992 154.8282,73.3702 30.605,31.3423 52.6632,41.4423 52.6632,24.1135 z"
         style="fill:#ffffff;fill-opacity:1;stroke:#ffffff;stroke-width:30.54319572;stroke-miterlimit:4;stroke-dasharray:none;stroke-dashoffset:0;stroke-opacity:1" />
      <g
         id="g890">
        <path
           id="path826"
           style="fill:#000000;stroke-width:6.19013023"
           d="m 1375.7617,-3549.1328 c -8.5031,0 -9.8585,7.3571 -8.8496,47.9726 l 1.1914,47.9747 2.2324,-40 c 1.2276,-21.9992 5.2094,-43.5862 8.8496,-47.9727 4.9375,-5.949 4.0683,-7.9746 -3.4238,-7.9746 z m 1154.086,60.123 c -104.2543,0.065 -219.397,2.8106 -282.0352,8.0098 -240.0241,19.9234 -282.7737,26.4 -391.168,59.2559 -140.1143,42.4704 -304.2384,118.2041 -294.3711,135.8359 2.5631,4.5799 23.2167,21.7413 45.8965,38.1367 64.4927,46.622 188.2154,141.3698 252.2071,193.1426 65.2691,52.8062 122.788,116.3256 181.0546,199.9414 21.5862,30.9772 55.77,78.9064 75.9649,106.5098 108.4685,148.2602 158.5714,242.9091 160.4355,303.082 l 0.9317,30.0527 -129.9942,78.6895 c -71.4959,43.2797 -148.0988,89.9762 -170.2285,103.7695 -22.1297,13.7933 -70.3454,41.4617 -107.1465,61.4863 -93.6772,50.9731 -109.0093,60.2541 -111.8828,67.7286 -1.3871,3.6079 10.9944,56.5343 27.5137,117.6132 16.5193,61.0789 33.0441,122.875 36.7226,137.3243 6.1628,24.2069 8.5984,26.576 31,30.1582 28.1525,4.5017 24.8937,-3.6186 68.0372,169.5097 13.9988,56.1755 39.5583,149.4544 56.7988,207.2871 33.3274,111.7958 49.5549,186.1503 94.5918,433.3907 15.5042,85.11401 31.1752,167.6748 34.8222,183.46676 10.5159,45.53382 28.3048,178.43656 24.5821,183.65234 -1.8589,2.60485 -24.2724,21.69179 -49.8067,42.41407 -53.625,43.51944 -143.5514,135.76362 -169.414,173.78125 -9.7662,14.3563 -30.8132,58.90292 -46.7696,98.99218 l -29.0117,72.89063 -31.0469,3.83008 c -17.0752,2.10739 -36.8696,6.95 -43.9882,10.75976 -19.0669,10.2042 -56.051,55.51906 -63.3457,77.61524 -4.4596,13.50788 -14.8635,23.7343 -35.0196,34.42382 -43.747,23.20079 -79.755,63.416988 -108.2246,120.8710981 -22.8902,46.1948219 -25.1901,54.8247249 -21.3808,80.2265629 2.3475,15.655097 12.1923,43.529199 21.8789,61.943359 15.8013,30.03894 16.9768,36.2295 11.4297,60.22461 -15.1852,65.68426 10.7786,145.57187 57.3222,176.37305 20.5477,13.59774 32.5547,16.70418 66.4531,17.19726 35.5706,0.51727 45.6532,3.39342 71.8711,20.49805 38.299,24.98596 61.4277,29.35855 110.0215,20.79883 59.0251,-10.39699 90.5724,-33.07747 115.3399,-82.91993 17.9707,-36.16379 22.1113,-40.7301 32.0918,-35.38867 19.7965,10.59478 81.4744,7.31783 102.0293,-5.42187 68.9643,-42.74372 80.4148,-99.37384 43.9726,-217.480471 -12.1933,-39.517727 -25.4659,-65.427423 -53.3164,-104.082031 -28.2921,-39.267851 -37.082,-56.555729 -37.082,-72.933594 0,-27.741354 -14.8685,-62.943874 -35.8281,-84.826174 l -16.6016,-17.33203 13.9023,-38.16797 c 7.6459,-20.99319 25.1322,-57.76359 38.8594,-81.71093 25.3736,-44.26432 84.3506,-121.42065 95.6152,-125.08985 9.5885,-3.1228 39.1844,230.93151 49.4493,391.056642 5.0196,78.305178 12.084,188.334308 15.6972,244.509768 3.6135,56.17546 7.9284,109.18509 9.5918,117.79883 2.4815,12.8562 24.8883,28.24729 125.086,85.92773 67.1343,38.64707 178.18,103.73797 246.7695,144.64648 l 124.709,74.37891 4.2734,118.24805 c 2.3477,65.03644 3.3353,133.56967 2.1895,152.29492 l -2.084,34.04492 -80.4707,4.0586 c -89.0789,4.49385 -221.2772,27.67979 -278.5567,48.85546 -119.5065,44.18066 -239.5585,185.84746 -239.5585,282.68946 0,78.369 44.2704,123.002 155.5136,156.791 40.8374,12.404 54.0052,13.4937 121.5879,10.0684 84.9614,-4.306 107.9062,-8.409 200.7774,-35.9102 89.4136,-26.4774 122.4737,-39.3497 200.1914,-77.9531 56.21,-27.9202 76.175,-42.0717 122.9863,-87.1641 60.6624,-58.4348 91.4143,-104.1529 91.5019,-136.0488 0.1121,-39.17 -29.7838,-84.3674 -76.0761,-115.01367 l -23.5176,-15.57031 -3.498,-115.17579 -3.4961,-115.17578 34.5937,16.9668 34.5938,16.9668 23.371,-19.49219 c 35.2997,-29.43953 98.5212,-70.98949 149.0059,-97.92774 38.1024,-20.33094 46.0706,-22.66034 50.9746,-14.90429 10.8492,17.15871 6.7432,168.39695 -6.8398,251.96679 -7.0625,43.45191 -13.3294,79.14085 -13.9278,79.29883 -78.4464,21.36325 -109.7347,49.84015 -114.2226,103.95895 -2.3127,27.8865 0.2853,39.1874 16.5527,71.9746 46.9402,94.6085 130.882,168.7972 266.8125,235.8125 71.5107,35.2555 133.6625,55.6572 198.0821,65.0196 159.1078,23.1233 319.3788,-9.557 395.3417,-80.6114 61.5356,-57.5589 54.458,-120.6199 -22.7226,-202.4355 -62.3123,-66.0543 -165.764,-132.254 -262.1445,-167.74804 -72.7014,-26.77365 -221.7499,-60.20118 -268.4239,-60.20118 -14.4716,0 -16.2757,-1.94394 -12.9179,-13.92773 2.1462,-7.66023 6.5899,-50.14099 9.875,-94.40039 3.2851,-44.25944 8.8813,-113.8991 12.4355,-154.75391 3.5539,-40.8548 7.0957,-90.99436 7.8691,-111.42187 l 1.4083,-37.14063 30.9492,-16.74609 c 28.6721,-15.51228 160.1435,-74.63378 300.2226,-135.00977 94.241,-40.61932 195.8388,-79.39181 219.8301,-83.89257 43.8153,-8.21982 43.3954,-6.01055 55.793,-293.6074262 9.6212,-223.1866538 22.5192,-466.2945738 24.8984,-469.3085938 0.8477,-1.07403 17.8409,6.27436 37.7617,16.32812 55.5995,28.0605 97.5047,38.24219 157.3985,38.24219 100.3446,0 172.6074,-34.91617 229.4375,-110.85742 l 31.6875,-42.3418 39.2265,3.14844 c 42.0983,3.37935 80.3754,-7.28663 151.0567,-42.0957 18.7253,-9.22171 48.6752,-19.87331 66.5566,-23.66992 50.2083,-10.66058 126.4961,-51.79841 152.5899,-82.28321 20.8517,-24.36079 40.8378,-72.80144 40.8378,-98.97656 0,-6.07226 -4.3754,-23.9304 -9.7246,-39.68555 -8.7387,-25.74451 -8.7628,-29.70717 -0.2343,-39.13086 31.0624,-34.32355 36.1803,-90.58002 12.7461,-140.11523 -15.4428,-32.6438 -15.5505,-33.8139 -4.9766,-53.7812 14.3403,-27.0818 13.4598,-84.1838 -1.6934,-109.836 -35.0502,-59.3353 -158.1537,-87.8667 -280.8613,-65.0937 -86.0954,15.9779 -93.6115,15.5766 -100.6875,-5.3887 -4.3605,-12.919 -3.0754,-26.573 4.8828,-51.8731 8.1622,-25.9485 9.9697,-46.4612 7.4004,-83.9472 -4.585,-66.8976 -26.6209,-110.9903 -69.5156,-139.1016 -63.3634,-41.526 -157.2852,-59.083 -198.668,-37.1367 -26.5259,14.0675 -45.7715,60.213 -45.7715,109.75 0,43.593 6.2328,57.8113 53.1621,121.2695 18.3315,24.7878 39.2333,59.8936 46.4473,78.0117 15.3917,38.6576 16.638,65.844 9.3496,203.8965 -5.11,96.78701 -4.6311,105.50028 8.1211,147.48441 l 13.5527,44.61914 -15.7949,31.69922 c -17.9078,35.93589 -21.5651,98.32987 -8.3496,142.43945 7.2676,24.25727 6.959,25.26148 -12.9062,41.8457 -28.4224,23.72803 -69.1818,33.95006 -130.7227,32.7832 -60.8784,-1.15347 -109.3861,-16.58754 -150.3105,-47.82617 l -26.1075,-19.92968 0.1914,-268.93946 c 0.1243,-174.00031 2.8297,-288.60801 7.6622,-324.65231 4.108,-30.6412 11.6978,-118.3854 16.8671,-194.9883 18.237,-270.2664 52.1496,-569.9884 74.4727,-658.2012 5.0237,-19.8512 9.1328,-36.9364 9.1328,-37.9668 0,-1.0302 5.1826,-3.2267 11.5156,-4.8828 9.507,-2.4861 12.7433,-13.1357 18.5645,-61.0762 13.4495,-110.754 19.8397,-199.42 14.7422,-204.5175 -6.3466,-6.3469 -152.5283,-49.4851 -332.6621,-98.168 -74.9004,-20.2427 -165.4317,-45.2063 -201.1797,-55.4746 -99.3305,-28.5321 -288.9505,-67.1879 -409.418,-83.4629 l -28.7246,-3.8809 -4.3242,-35.3144 c -6.6699,-54.4688 -37.1075,-204.9566 -61.9317,-306.1953 -54.6063,-222.6958 -129.497,-400.9929 -175.7285,-418.3711 -8.9449,-3.3623 -62.225,-9.2069 -118.4004,-12.9883 -56.1755,-3.7814 -127.2064,-10.2805 -157.8476,-14.4414 -31.4811,-4.2752 -114.9917,-6.305 -206.9805,-6.2481 z m -50.6133,40.543 c 26.9602,0.042 55.5458,0.3912 84.2754,1.0664 163.2137,3.8359 418.2371,14.9947 439.9804,19.252 17.5423,3.4348 39.0627,44.9461 82.5176,159.1738 39.1773,102.9838 79.4249,252.9885 114.5703,427.0039 26.1734,129.5922 26.947,140.8848 9.6524,140.8848 -16.0684,0 -151.0185,-16.0691 -235.0782,-27.9922 -108.459,-15.3839 -120.4972,-13.6719 -184.3378,26.2207 -17.9743,11.2317 -63.9356,36.0533 -102.1368,55.1582 -38.2012,19.1047 -92.7292,49.8553 -121.1718,68.334 -28.4429,18.4786 -94.6212,57.1479 -147.0625,85.9316 -52.4412,28.7838 -96.8062,52.334 -98.5899,52.334 -1.7836,0 -4.4661,-3.4826 -5.9629,-7.7383 -41.9178,-119.2197 -43.0461,-121.6241 -103.8027,-221.2969 -48.3278,-79.2831 -122.0191,-180.9013 -201.4356,-277.7773 -71.3174,-86.9965 -235.7187,-226.9427 -372.1855,-316.8203 -14.3321,-9.4392 -12.7356,-10.558 80.707,-56.5625 178.0363,-87.6528 201.1579,-93.7642 404.836,-107.002 81.7096,-5.3106 179.2039,-12.5988 216.6543,-16.1972 27.8102,-2.6725 79.2577,-4.0655 138.5703,-3.9727 z m 307.4082,85.9023 c -11.9192,0.021 -25.3991,0.3927 -40.5254,1.1016 -97.7,4.579 -233.1307,39.521 -209.9766,54.1758 12.5676,7.9543 19.1408,7.2792 69.2305,-7.1152 36.1138,-10.3781 65.2025,-13.1683 150.0312,-14.3887 97.965,-1.4093 105.2325,-2.3087 105.2325,-13.0391 0,-14.3095 -22.3424,-20.823 -73.9922,-20.7344 z m -649.8028,17.7051 c -10.012,0 -32.0057,25.733 -37.9199,44.3672 -3.0124,9.4909 -7.4371,11.5138 -18.8926,8.6387 -10.0299,-2.5174 -21.5668,0.746 -35.0097,9.9043 -58.6319,39.9442 -50.1093,37.5965 -86.4063,23.8008 -39.5937,-15.0488 -60.541,-16.0175 -60.541,-2.8008 0,5.7241 12.6684,14.8923 31.2422,22.6113 21.7651,9.0451 29.2753,14.9513 24.7598,19.4668 -13.4709,13.4708 -5.3172,34.9576 31.1816,82.1777 l 37.6621,48.7246 -3.875,44.879 c -3.2398,37.5256 -2.3507,44.8789 5.4297,44.8789 5.7536,0 11.8984,-10.0405 16.1016,-26.3086 3.7383,-14.4695 8.0543,-30.6815 9.5879,-36.0254 1.5341,-5.3439 11.8133,-14.321 22.8437,-19.9492 11.0303,-5.6284 31.5639,-17.3601 45.6309,-26.0723 l 25.5781,-15.8418 28.8809,22.0469 c 15.8841,12.125 31.5345,20.4045 34.7773,18.4004 12.8055,-7.9143 5.6713,-33.1801 -13.1523,-46.584 -13.6067,-9.6888 -17.1417,-15.4659 -12.379,-20.2285 12.2385,-12.2384 6.9291,-23.563 -30.4746,-65.0059 -20.4275,-22.6334 -37.1406,-44.2568 -37.1406,-48.0527 0,-3.7959 6.9632,-19.9981 15.4746,-36.0059 17.5228,-32.9558 19.5098,-47.0215 6.6406,-47.0215 z m 669.502,43.2676 c -60.7252,-0.1359 -152.6304,16.7103 -142.9805,32.3242 2.0739,3.3556 13.7871,4.3574 26.2285,2.2422 12.3651,-2.1022 56.6046,-5.4903 98.3106,-7.5293 74.5545,-3.6448 87.615,-7.8517 63.8574,-20.5664 -8.3967,-4.4938 -25.1743,-6.4254 -45.416,-6.4707 z m -740.4609,40.6387 c 0.7887,0.034 1.4878,0.1594 2.08,0.3867 11.4497,4.3936 11.6767,7.0086 2.8262,32.3965 -3.7375,10.7217 -8.6115,19.3829 -10.832,19.2461 -8.3278,-0.5113 -38.0821,-18.9092 -38.0821,-23.5469 0,-8.8245 32.1774,-28.9922 44.0079,-28.4824 z m 758.1699,15.0644 c -18.0172,0.1015 -41.4937,3.5558 -57.0586,10.0078 -28.7753,11.9282 -29.3137,12.3674 -24.541,20.0899 2.4564,3.9743 11.8096,3.8653 26.9277,-0.3145 12.7404,-3.5224 35.4686,-8.1669 50.5059,-10.3222 15.0374,-2.1554 28.5001,-7.4002 29.9179,-11.6543 1.7919,-5.3756 -9.8544,-7.8962 -25.7519,-7.8067 z m -718.8574,16.4571 c 4.759,-0.236 11.2875,6.863 26.9628,25.5859 14.2447,17.0138 25.8985,34.0293 25.8985,37.8125 0,9.6358 -5.2099,8.4228 -38.6875,-9.0039 -30.745,-16.0043 -36.1161,-28.2836 -21.2578,-48.6035 2.5826,-3.5319 4.5911,-5.6674 7.084,-5.791 z m -113.4844,21.3164 c 8.1917,0.02 20.5614,3.7632 36.5996,11.9453 27.1086,13.8298 27.3974,14.5172 17.7187,42.2812 -3.7374,10.7218 -8.7291,19.4942 -11.0918,19.4942 -2.3626,0 -16.3953,-12.3284 -31.1835,-27.3965 -27.8628,-28.3901 -30.0647,-46.3682 -12.043,-46.3242 z m 92.6445,52.625 c 2.7088,0.061 6.1903,1.5743 11.3125,4.1816 20.4126,10.3903 22.1684,19.7235 6.4649,34.3535 -20.4017,19.0071 -36.9871,21.3574 -36.6485,5.1934 0.1535,-7.3416 3.6362,-20.9593 7.7383,-30.2617 4.2487,-9.6348 6.6182,-13.5685 11.1328,-13.4668 z m 805.6582,58.5117 c -13.8105,-0.023 -34.9495,3.138 -59.4336,9.3047 -60.8364,15.3227 -133.9804,40.5078 -133.9804,46.1328 0,2.8465 -1.6914,9.5814 -3.7579,14.9668 -5.2829,13.7671 3.3292,12.5216 67.8399,-9.8106 47.6349,-16.4901 68.1722,-20.0321 129.3594,-22.3164 40.0036,-1.4934 72.7324,-5.2079 72.7324,-8.2539 0,-3.046 -4.1783,-5.539 -9.2852,-5.539 -5.1068,0 -9.2851,-2.7849 -9.2851,-6.1895 0,-3.4046 -8.3567,-6.1894 -18.5703,-6.1894 -10.2137,0 -18.5704,-2.7869 -18.5704,-6.1915 0,-3.9524 -6.3073,-5.896 -17.0488,-5.914 z m 57.6758,90.2148 c -14.0994,-0.097 -30.1846,0.9255 -46.4512,3.2305 -56.4366,7.9971 -74.6465,14.5437 -74.6465,26.834 0,11.1497 20.6126,12.3981 47.8633,2.8984 10.3188,-3.5971 41.4411,-8.4731 69.1602,-10.834 27.7191,-2.3608 50.4512,-7.0778 50.5215,-10.4824 0.144,-7.2007 -19.5302,-11.4623 -46.4473,-11.6465 z m 36.709,64.8672 c -36.8425,0.1254 -87.9467,18.1859 -79.5625,31.752 3.6948,5.9782 98.1058,1.2797 108.9492,-5.4219 10.244,-6.3311 3.8456,-20.7229 -10.8535,-24.4121 -5.3762,-1.3494 -11.7105,-1.9412 -18.5332,-1.918 z m -640.3672,9.2324 c -8.1319,0.1157 -16.9204,2.7627 -24.9004,8.2403 -8.583,5.8916 -24.7724,14.3701 -35.9766,18.8398 -27.2126,10.8561 -50.8144,29.9739 -50.8144,41.1602 0,4.9976 5.0951,16.6346 11.3223,25.8593 6.2273,9.2248 23.6143,35.5738 38.6386,58.5547 15.0245,22.9808 30.7991,41.7832 35.0547,41.7832 4.2557,0 32.7634,-10.4457 63.3516,-23.2129 39.2004,-16.3617 55.6562,-26.353 55.7617,-33.8535 0.08,-5.8527 -13.4376,-31.4481 -30.0391,-56.8789 -16.6012,-25.4307 -31.8932,-53.0433 -33.9804,-61.3593 -3.134,-12.4866 -14.8648,-19.3256 -28.418,-19.1329 z m -15.9863,43.7383 c 14.8904,0.3066 27.3934,12.1804 47.7343,38.4824 16.7762,21.6925 29.6658,43.9774 28.6446,49.5215 -1.0211,5.5442 -14.2858,16.3475 -29.4766,24.0078 -45.4975,22.9431 -51.1684,20.4588 -80.0547,-35.0644 l -25.4902,-48.9942 21.4492,-13.2558 c 15.6984,-9.7022 27.0052,-14.907 37.1934,-14.6973 z m 548.0683,181.6504 h 19.3789 c 10.6585,0 46.1743,4.0388 78.9239,8.9766 32.7497,4.9378 97.1495,13.5108 143.1113,19.0508 45.9616,5.5399 126.7428,18.3192 179.5137,28.3984 52.7708,10.0793 116.8387,21.1937 142.373,24.6973 65.9558,9.0497 294.9727,59.2562 364.9746,80.0117 32.4771,9.6294 98.0466,27.5125 145.711,39.7402 47.664,12.2277 122.8753,32.7784 167.1347,45.668 75.2784,21.9232 80.4371,24.4109 79.9473,38.5566 -0.9354,26.986 -21.5179,191.5096 -25.1387,200.9453 -4.2679,11.1216 -37.7145,11.0762 -175.5176,-0.2402 -52.7709,-4.3335 -171.1566,-12.6121 -263.08,-18.3965 -91.9234,-5.7844 -206.131,-14.5803 -253.795,-19.5469 -49.813,-5.1904 -187.3071,-10.5496 -323.3613,-12.6035 -159.9671,-2.4147 -239.5889,-5.8175 -245.6133,-10.498 -8.9382,-6.9445 -11.7969,-32.6297 -28.3183,-254.5313 -3.5488,-47.664 -6.4003,-105.4644 -6.3477,-128.4453 z m -34.666,7.1484 c 0.1362,0.015 0.235,0.056 0.291,0.125 0.8965,1.1062 5.0058,38.223 9.1328,82.4825 4.1271,44.2594 10.0025,106.9358 13.0567,139.2793 3.054,32.3434 5.6506,92.5591 5.7734,133.8125 l 0.2207,75.0058 -47.9726,19.7305 c -26.3854,10.8522 -95.3274,37.9179 -153.2051,60.1465 -156.9467,60.2771 -256.9844,101.9567 -346.6484,144.4297 -140.6189,66.6095 -344.8997,158.6942 -396.6954,178.8203 -54.2434,21.0772 -61.8036,22.5793 -67.4765,13.4004 -2.0556,-3.3261 -16.0477,-54.1634 -31.0938,-112.9707 -15.046,-58.8074 -29.05,-112.7135 -31.1191,-119.791 -3.2964,-11.2756 7.5989,-19.2245 87.9883,-64.2032 50.4622,-28.2341 123.7829,-71.6458 162.9355,-96.4687 39.1526,-24.8229 108.7923,-65.309 154.7539,-89.9707 45.9618,-24.6618 110.0074,-61.4507 142.3242,-81.752 32.3169,-20.3013 146.5244,-85.5822 253.795,-145.0683 107.2705,-59.4862 205.7388,-115.0725 218.8183,-123.5254 12.262,-7.9247 23.0781,-13.7026 25.1211,-13.4825 z m 259.9375,452.4102 c 118.5995,-0.2126 253.4938,7.9914 381.3613,23.5645 66.2324,8.0665 173.9452,14.4523 306.4102,18.1679 212.9314,5.9729 309.6956,10.6716 339.4707,16.4805 14.1343,2.7564 16.9246,5.9563 14.2227,16.2891 -8.1309,31.093 -53.6263,419.5097 -59.9786,512.0722 -3.8555,56.1753 -13.8253,180.1329 -22.1543,275.461 -11.1152,127.2203 -16.6603,248.2416 -20.8476,454.97457 -3.1378,154.90794 -8.7192,373.57306 -12.4024,485.92383 -3.6839,112.3509 -9.3737,301.76968 -12.6464,420.929684 -6.2147,226.275086 -9.1548,265.392846 -20.6446,274.708986 -3.8143,3.09281 -54.2905,22.80409 -112.1679,43.80273 -137.2381,49.79158 -194.3452,74.91229 -439.4981,193.32618 -216.3729,104.51251 -270.6616,133.64731 -357.2422,191.71484 -29.6594,19.89195 -55.129,36.16797 -56.5976,36.16797 -6.9623,0 -10.1836,-24.45685 -10.1836,-77.29102 0,-31.73941 -4.1306,-108.81034 -9.1778,-171.26953 -13.0079,-160.97439 -32.7755,-660.14849 -36.6093,-924.46875 -1.3334,-91.92344 -6.7485,-225.63103 -12.0332,-297.12695 -11.4193,-154.48702 -20.75,-363.33574 -28.9004,-646.86914 -8.1565,-283.7348 -22.5915,-576.288 -34.666,-702.5801 -5.5334,-57.8777 -10.43,-112.1956 -10.8809,-120.707 l -0.8203,-15.4746 120.707,-5.6153 c 30.141,-1.4021 62.0715,-2.1221 95.2793,-2.1816 z m -257.5273,23.2715 c 3.3939,0 8.0196,4.8213 10.2812,10.7148 7.1128,18.5356 27.9645,247.087 34.3184,376.168 5.6788,115.3638 8.7666,190.5909 25.1543,612.8242 3.4355,88.5188 10.3704,225.01131 15.4121,303.31642 8.8292,137.12758 13.3882,242.84205 27.7617,643.77344 3.6617,102.13727 10.6425,266.484311 15.5137,365.216799 4.8713,98.732651 11.6204,254.723231 14.9961,346.646481 3.3758,91.92344 7.9277,195.68704 10.1172,230.58399 3.2337,51.54085 2.39,63.43944 -4.4961,63.36914 -4.6623,-0.043 -30.7616,-12.66807 -57.9981,-28.05664 -27.2366,-15.38873 -66.8222,-36.22291 -87.9668,-46.29883 -21.1447,-10.07573 -67.1059,-35.96392 -102.1367,-57.5293 -35.029,-21.56523 -120.7942,-72.22516 -190.5879,-112.57812 C 2323.71,350.42728 2284.1235,326.79389 2277.5957,318.5625 c -9.5911,-12.09468 -19.8437,-106.54574 -23.7305,-218.613281 -5.4253,-156.425733 -24.3187,-400.309819 -37.4043,-482.830079 -13.5002,-85.13579 -13.2584,-86.44357 20.5196,-111.10352 16.1717,-11.80637 64.2222,-40.03575 106.7793,-62.73242 126.0146,-67.20608 146.6578,-81.40011 160.7636,-110.53906 15.8762,-32.7973 15.8972,-55.41312 0.07,-81.01953 -18.0771,-29.24935 -38.0758,-40.05859 -74.1094,-40.05859 -45.9122,0 -86.7958,16.87455 -177.7129,73.35546 -44.6609,27.74487 -83.7756,50.44532 -86.9219,50.44532 -6.4123,0 -26.048,-97.00438 -45.1074,-222.84375 -6.9613,-45.96182 -22.4138,-130.92095 -34.3379,-188.79885 -11.9241,-57.8777 -28.4007,-148.4088 -36.6152,-201.1797 -13.5349,-86.9484 -82.5457,-377.0517 -95.5254,-401.5644 -2.9351,-5.5429 -14.2656,-41.4999 -25.1778,-79.9043 -21.9193,-77.142 -20.8602,-83.9162 14.2911,-91.4453 10.8297,-2.3196 93.5073,-37.5282 183.7285,-78.2422 159.1802,-71.8332 206.2997,-91.5338 408.5488,-170.8223 52.7708,-20.6879 142.3152,-57.3019 198.9883,-81.3633 56.6731,-24.0613 105.8191,-43.748 109.2129,-43.748 z m 1528.4297,660.9629 c 14.917,0.2627 35.7132,6.0678 70.0253,17.1601 76.6697,24.7858 95.2229,37.7138 120.336,83.8555 21.3505,39.2273 22.9138,83.2617 4.8144,135.5898 -10.4519,30.2176 -15.0235,35.6055 -40.6562,47.9141 -40.0849,19.248 -37.8933,29.131 5.332,24.0508 28.7535,-3.3795 34.8518,-2.3526 38.2246,6.4375 2.7236,7.0967 -0.8118,13.5186 -10.998,19.9746 -29.4554,18.6689 -61.6837,58.8165 -70.1797,87.4258 -10.6628,35.9055 -4.9156,71.5773 16.8262,104.4316 14.1014,21.3087 14.9367,25.4259 7.2246,35.6114 -17.0449,22.5102 -29.1419,70.01506 -24.9492,97.97261 5.1779,34.5318 34.4315,78.50744 62.1582,93.43945 22.6325,12.18837 24.048,15.2217 17.8613,38.30664 -2.0531,7.66027 -7.34,13.92773 -11.7481,13.92773 -12.0408,0 -78.5738,-75.23586 -97.8437,-110.64062 -25.4952,-46.84335 -43.5495,-136.59631 -37.5117,-186.48631 7.3727,-60.9196 5.8829,-204.0601 -2.42,-232.4512 -6.3586,-21.7442 -46.3376,-86.0466 -97.5468,-156.8945 -23.3216,-32.2657 -19.5074,-63.9844 11.8789,-98.7832 12.9134,-14.3177 22.2659,-21.1395 39.1719,-20.8418 z m -958.2774,0.8047 c -33.5136,-0.099 -77.7,13.4546 -120.3848,40.6972 -68.8825,43.9627 -163.7167,159.877 -163.7168,200.1075 1e-4,13.9055 14.6195,18.775 21.7461,7.2441 11.4581,-18.5396 124.0995,-111.5613 149.6563,-123.5899 16.377,-7.7073 50.3515,-16.5747 75.5,-19.705 68.6956,-8.5509 93.5547,-25.4337 93.5547,-63.5352 0,-27.3689 -22.8418,-41.1196 -56.3555,-41.2187 z m 10.8496,15.291 c 4.5804,-0.034 8.3036,0.407 10.877,1.3945 19.1887,7.3634 14.5152,45.7472 -6.9707,57.2461 -6.2414,3.3402 -33.558,9.1418 -60.7032,12.8906 -58.4228,8.0686 -97.969,26.5171 -147.58,68.8516 -19.7265,16.8334 -37.1319,30.6074 -38.6778,30.6074 -1.5464,0 0.499,-6.2673 4.545,-13.9277 13.4604,-25.4841 100.9206,-107.3552 135.4531,-126.7969 28.5982,-16.1008 78.3225,-30.085 103.0566,-30.2656 z m 244.0528,4.8867 v 0 c -7.3657,0.056 -14.6029,0.6315 -21.6582,1.7597 -41.3804,6.617 -50.1213,22.9438 -31.5293,58.8965 10.7837,20.8533 32.1145,28.6017 92.3496,33.5488 59.1351,4.8568 113.1755,31.015 154.3515,74.711 50.1487,53.2177 59.6887,46.2863 27.918,-20.2832 -39.9409,-83.689 -136.4987,-147.6116 -218.2676,-148.625 -1.0573,-0.013 -2.1118,-0.016 -3.164,-0.01 z m -3.4375,17.8008 c 32.952,-0.2212 79.7032,17.0526 125.082,47.998 21.1971,14.4551 41.49,31.7956 45.0957,38.5332 3.6064,6.7379 5.7612,12.0216 4.791,11.7442 -0.971,-0.2776 -18.8844,-8.7458 -39.8086,-18.8184 -26.2357,-12.6295 -55.4856,-20.4609 -94.2383,-25.2324 -46.2373,-5.6929 -58.6907,-9.5762 -70.2832,-21.916 -13.84,-14.7322 -13.8776,-15.1521 -2.0742,-23.7832 7.7594,-5.6739 18.5413,-8.4389 31.4356,-8.5254 z m -325.545,146.3906 c -36.8648,0.4241 -70.6742,14.9917 -87.9238,44.959 -27.07,47.0281 -29.4674,157.9989 -5.0879,235.5078 25.607,81.4111 94.4701,176.57378 148.4746,205.17774 36.0281,19.08249 52.1185,21.33021 79.2129,11.06445 29.0356,-11.00133 44.9112,-30.95508 57.7793,-72.61719 30.7024,-99.4028 1.8375,-260.5051 -64.3281,-359.0312 -28.175,-41.9549 -78.3955,-64.4499 -124.5508,-65.0567 -1.1951,-0.016 -2.387,-0.018 -3.5762,0 z m -6.2636,17.8789 c 41.1927,-0.2859 95.5893,26.8793 120.1894,64.0527 22.7798,34.4224 50.0674,105.3405 63.0215,163.7911 19.9202,89.8829 2.0082,203.10468 -36.3848,229.99606 -31.228,21.87299 -76.467,5.19602 -120.7812,-44.52344 -85.4606,-95.88462 -128.8245,-237.15982 -103.334,-336.65822 11.3463,-44.2894 22.2394,-59.5162 51.4082,-71.8613 7.5711,-3.2043 16.3748,-4.7309 25.8809,-4.7969 z m 1417.2402,109.084 c 36.9998,-0.044 75.9477,5.5662 114.2324,16.748 79.0919,23.1006 102.3044,48.9568 89.4434,99.625 -11.5166,45.3716 -86.6003,123.1486 -127.9668,132.5567 -29.5918,6.73015 -151.9626,9.36999 -177.7246,3.83397 -57.4798,-12.35207 -75.4501,-19.63967 -99.7774,-40.46287 -32.033,-27.4192 -42.0348,-54.7696 -32.7031,-89.4258 14.0799,-52.288 61.9537,-87.4974 152.9258,-112.4707 25.1932,-6.916 52.7927,-10.3702 81.5703,-10.4043 z m -1326.3359,116.3633 c -18.2984,0 -24.4017,3.7554 -37.5489,23.1035 -20.7556,30.5434 -20.5465,63.7778 0.666,106.3457 11.3546,22.78579 22.2512,35.38546 35.5938,41.1582 19.9618,8.63656 38.5032,6.55487 51.6152,-5.79492 10.8733,-10.24101 21.0763,-70.29338 16.3692,-96.34178 -8.851,-48.9792 -27.8372,-68.4707 -66.6953,-68.4707 z M 3833.6992,-1121 c -0.1311,0.9173 -0.2513,1.8352 -0.3887,2.752 0.1351,-0.4301 0.2616,-0.8596 0.3711,-1.2891 0.1096,-0.4293 0.2023,-0.9017 0.2832,-1.4004 -0.089,-0.021 -0.1777,-0.042 -0.2656,-0.062 z m -405.4336,6.2227 c 7.2432,0.2698 14.9643,4.7253 23.0957,13.3808 19.0008,20.2256 24.0119,66.2411 10.6875,98.1309 -5.2938,12.66989 -13.4594,23.03708 -18.1465,23.03708 -13.8402,0 -34.6728,-26.49088 -45.2539,-57.54488 -9.2364,-27.1074 -9.1394,-30.4182 1.5235,-52.2422 7.8654,-16.0983 16.8064,-24.3646 26.6523,-24.7598 0.4786,-0.019 0.9585,-0.02 1.4414,0 z m -3.5254,15.6328 v 0.01 c -0.3597,-0.01 -0.7221,-0.01 -1.0859,0 -2.4087,0.067 -4.9035,0.5707 -7.4551,1.5801 -10.6881,4.2278 -13.9277,10.4786 -13.9277,26.8691 0,11.7473 1.6912,25.7651 3.7578,31.1504 v -0.01 c 4.8164,12.5579 23.5143,12.5924 36.0352,0.07 19.7581,-19.7582 5.3404,-59.0583 -17.3243,-59.666 z m 2.293,26.0644 c 3.4045,0 6.1895,5.5697 6.1895,12.3789 0,6.8091 -2.785,12.3809 -6.1895,12.3809 -3.4046,0 -6.1914,-5.5718 -6.1914,-12.3809 0,-6.8092 2.7868,-12.3789 6.1914,-12.3789 z m 1518.9941,29.0508 c 8.4971,0.032 11.8121,10.9687 14.4434,34.3145 5.444,48.29619 -31.3928,97.71309 -112.8027,151.31832 -44.2534,29.13913 -62.3466,36.4779 -111.0118,45.0332 -102.1802,17.96338 -205.3282,-11.78656 -218.9394,-63.14649 -8.8513,-33.39877 16.2816,-116.0996 35.2832,-116.09961 2.8981,10e-6 16.6801,4.02663 30.627,8.94727 13.9468,4.92064 58.5069,11.99517 99.0234,15.72266 110.6967,10.18401 168.0964,-3.93719 232.0312,-57.08205 14.9922,-12.4618 24.7369,-19.0329 31.3457,-19.0078 z m -1154.4589,60.27539 c -0.3904,0.56773 -0.7334,1.14151 -1.0567,1.7168 0.3563,-0.57651 0.73,-1.18643 1.0567,-1.7168 z m -29.1504,23.98243 c -0.01,0.0123 -0.018,0.0248 -0.027,0.0371 0.085,0.15256 0.1794,0.32408 0.2246,0.40235 0.046,0.0571 0.087,0.11059 0.1328,0.16797 -0.017,-0.0389 -0.2373,-0.46613 -0.2753,-0.54492 -0.018,-0.0208 -0.037,-0.0415 -0.055,-0.0625 z m 4.3261,4.14257 c 0.026,0.0457 0.052,0.0911 0.078,0.13672 0.035,0.0283 0.068,0.0549 0.1015,0.082 -0.017,-0.0279 -0.024,-0.0418 -0.043,-0.0742 -0.045,-0.0484 -0.091,-0.0961 -0.1368,-0.14453 z m 0.1426,0.15039 c 0.017,0.0299 0.023,0.0419 0.041,0.0723 0.034,0.0271 0.069,0.056 0.1016,0.082 -0.048,-0.0512 -0.095,-0.10313 -0.1426,-0.1543 z m 152.3262,12.39063 c -20.8774,0 -22.4072,1.24507 -20.5938,16.77734 1.3512,11.57549 6.3908,17.81488 16.252,20.11914 7.8614,1.83697 14.7692,6.1247 15.3535,9.5293 1.3569,7.91414 -70.035,57.03582 -124.4512,85.63086 -162.0841,85.17283 -436.1468,63.74467 -609.3242,-47.64258 -38.4623,-24.7389 -43.3863,-32.92469 -21.664,-36.00976 21.5869,-3.06581 19.5258,-32.28085 -2.4571,-34.82618 -31.7097,-3.6715 -56.7073,12.90442 -75.5136,50.07422 -9.6217,19.0167 -16.5198,39.6327 -15.3301,45.81446 3.5208,18.28221 19.368,12.83029 24.914,-8.57227 11.5448,-44.55281 36.4229,-27.11929 47.5606,33.32813 18.8616,102.36464 72.8401,196.22409 150.6972,262.04101 51.9078,43.88005 140.5281,89.66185 190.4668,98.39649 18.7251,3.27545 60.5081,5.29348 92.8516,4.48632 53.3273,-1.33198 63.7098,-3.68557 111.4238,-25.27343 65.8865,-29.80993 136.1126,-77.07196 136.1504,-91.63282 0.047,-16.34048 -17.0345,-13.06433 -44.2422,8.48438 -13.4139,10.62425 -26.3497,17.35733 -28.7461,14.96289 -2.3963,-2.39463 -5.2302,-27.10425 -6.2988,-54.91016 -3.349,-87.13156 34.3599,-167.56863 94.4551,-201.48437 18.079,-10.20329 49.2278,-33.68065 69.2207,-52.17188 36.237,-33.51549 36.3837,-33.57914 46.6523,-20.49218 9.4666,12.06534 10.6488,12.2496 14.5957,2.28125 12.4075,-31.33652 -24.9552,-78.91016 -61.9726,-78.91016 z m 1017.5937,73.87695 7.0879,23.66016 c 17.839,59.54041 -31.9728,124.85291 -116.0254,152.13086 -67.9211,22.04266 -101.4936,24.32076 -156.4453,10.61914 -64.3513,-16.04515 -84.6963,-40.65493 -68.6035,-82.98242 5.647,-14.85253 7.7712,-15.37464 60.3535,-14.85352 29.9755,0.29673 71.2134,-3.19568 91.6407,-7.75976 42.585,-9.51478 136.3803,-48.33599 163.582,-67.70508 z m -500.4433,31.35547 c 2.7828,0 16.4341,16.2148 30.3359,36.0332 16.1779,23.06306 38.5824,44.64428 62.2442,59.95704 20.3331,13.15853 38.4175,28.48629 40.1875,34.0625 5.9625,18.78667 37.4709,43.08973 70.3554,54.26757 17.9664,6.107 33.1578,13.51122 33.7617,16.45313 0.6025,2.94191 -8.6545,8.7067 -20.5703,12.81055 -26.6539,9.17945 -73.1081,15.08697 -89.7558,11.41406 -75.6507,-16.69055 -120.6956,-50.97527 -136.3848,-103.80664 -4.9961,-16.82302 -9.084,-38.59822 -9.084,-48.38867 0,-24.11407 12.6467,-72.80274 18.9102,-72.80274 z m -1253.2852,6.97266 c 0.1822,0.01 0.3795,0.061 0.5899,0.15429 2.7748,1.2302 31.5062,15.31945 63.8496,31.31055 73.2962,36.23875 149.399,58.59964 241.416,70.93359 88.031,11.79988 146.4246,8.22368 221.6445,-13.57421 31.6835,-9.18157 59.141,-15.1579 61.0176,-13.28125 1.8767,1.87661 -5.7478,19.42038 -16.9434,38.98828 -18.9834,33.17926 -20.5925,40.52223 -23.8769,108.90625 l -3.5215,73.32812 -12.7793,-12.81836 c -7.0279,-7.04946 -32.629,-19.53324 -56.8926,-27.74218 -38.1294,-12.9001 -57.8138,-15.17905 -145.0703,-16.79688 l -100.9551,-1.87109 -34.8925,22.6875 -34.8907,22.6875 -30.5625,-28.87696 c -35.955,-33.97243 -96.167,-127.81985 -112.3593,-175.12695 -13.6587,-39.90652 -21.4223,-79.20446 -15.7735,-78.9082 z m -758.5293,63.23242 c 13.4927,-0.18288 24.6885,3.19315 35.2754,9.83789 17.1701,10.77657 20.1172,16.20824 20.1172,37.07422 0,13.44684 -2.6108,31.31742 -5.8027,39.71289 -5.9437,15.63281 -60.6484,52.15597 -172.7285,115.32227 -149.9901,84.53128 -247.7602,194.56038 -304.6856,342.88476 -26.1865,68.23121 -42.7339,96.40034 -62.6875,106.71875 -43.9011,22.702073 -74.328,-1.15898 -77.9902,-61.16016 -2.0144,-33.00332 1.3496,-48.86606 23.6054,-111.30468 30.1002,-84.44674 56.2478,-127.66526 115.2461,-190.49219 95.5962,-101.79965 228.8654,-203.85159 335.2364,-256.70703 43.0584,-21.3956 71.9262,-31.58193 94.414,-31.88672 z m 1643.1074,103.11719 c 1.6729,0 15.5053,9.51306 30.7383,21.14062 75.4655,57.60431 178.7552,62.54454 277.5313,13.27149 l 42.2441,-21.07227 39.666,29.65039 39.668,29.65235 -16.8125,22.19531 c -30.3231,40.0343 -86.1856,83.64138 -120.6269,94.16211 -18.197,5.55881 -63.5337,11.01074 -103.5547,12.45312 -75.7482,2.72992 -107.7993,-3.74193 -165.586,-33.43359 l -26.3086,-13.51758 v -77.25 c 0,-42.48805 1.369,-77.25195 3.041,-77.25195 z m -577.707,89.31054 c 36.1365,-0.0221 65.9229,12.89767 79.5176,37.58789 10.8804,19.76055 30.8887,28.61558 30.8887,13.66993 0,-4.89752 -5.5718,-15.98817 -12.3809,-24.64454 -6.8092,-8.65632 -12.3789,-17.38784 -12.3789,-19.40429 0,-6.98665 41.2367,-3.62076 73.6797,6.01367 31.9328,9.48299 82.0731,47.09485 73.8047,55.36328 -2.2725,2.27248 -27.3342,12.20605 -55.6914,22.07617 -49.6258,17.27328 -94.462,21.6652 -141.3145,13.8418 -57.3849,-9.58197 -154.7539,-47.79034 -154.7539,-60.72656 0,-4.17702 17.4108,-15.50701 38.6895,-25.17969 27.5169,-12.50834 55.2144,-18.58254 79.9394,-18.59766 z m -1670.2656,350.67578 c 8.4861,-0.23763 8.7608,10.98889 6.2266,38.20118 -6.5261,70.07251 24.5548,109.799024 85.9375,109.851559 37.457,0.02963 61.9917,-14.896636 85.5566,-52.054689 10.6244,-16.75283 21.2721,-27.27317 25.168,-24.86523 9.8392,6.08103 24.0605,42.92152 24.0605,62.330076 0,24.827334 -46.7851,67.193738 -87.5801,79.308593 -40.7851,12.1118789 -61.709,11.69097159 -104.3144,-2.099609 -70.8896,-22.945436 -116.9946,-54.107375 -126.5059,-85.503906 -9.9478,-32.837484 20.9498,-85.780734 66.1406,-113.333984 12.172,-7.42164 20.2189,-11.69138 25.3106,-11.83399 z m -125.5274,117.125 c 2.6784,0 8.148,9.933033 12.1543,22.072271 8.9454,27.104764 40.179,51.102009 111.2891,85.50781212 48.4994,23.46642188 56.4902,25.43564588 102.1367,25.16015588 51.6033,-0.310752 75.4448,-8.776039 116.2871,-41.289062 22.0808,-17.577902 30.4163,-12.756326 64.2383,37.162109 34.3327,50.671726 52.9877,100.736824 56.3809,151.318364 2.4705,36.82868 0.877,44.87817 -13.8614,70.02734 -17.8403,30.44269 -47.1213,52.3418 -70.039,52.37695 -7.7696,0.0126 -23.7851,-4.0122 -35.5918,-8.94531 -30.919,-12.91868 -30.1234,-36.37943 1.7441,-51.38477 28.5758,-13.45508 31.4061,-30.00685 4.795,-28.04687 -24.0034,1.76784 -62.6457,29.27135 -88.2032,62.7793 -28.3242,37.13557 -17.3056,54.28453 13.5196,21.04101 14.4344,-15.56631 15.7265,-15.91983 15.7265,-4.30664 0,18.20747 -32.2936,66.49392 -55.5429,83.04883 -10.9305,7.7832 -36.582,19.35003 -57,25.70508 -45.3828,14.12494 -46.322,14.13496 -73.0372,0.71289 -25.0247,-12.57283 -46.7001,-42.38636 -56.9648,-78.35156 -15.8667,-55.59414 -33.1931,-51.54144 -27.7734,6.49609 l 3.6777,39.36719 h -18.6465 c -33.4826,0 -78.5735,-29.6606 -95.9941,-63.14258 -14.2075,-27.30637 -10.5341,-73.50779 10.457,-131.51953 10.5348,-29.1144 21.6762,-54.49463 24.7598,-56.40039 8.6532,-5.34793 6.7306,-28.880049 -2.1309,-26.082034 -4.2558,1.343561 -16.6589,15.620504 -27.5625,31.726564 l -19.8242,29.2832 -9.5781,-18.52344 C 1563.019,96.360435 1567.5407,68.973756 1599.3965,8.3085938 1625.5509,-41.499135 1679.5286,-107.42188 1694.1562,-107.42188 Z m 1708.1895,643.77344 c 8.659,0 7.5036,83.43767 -2.8711,207.3711 -14.6918,175.50209 -31.0209,237.3673 -71.6875,271.58594 -53.4906,45.0094 -93.6009,-5.1103 -84.3281,-105.37501 1.8422,-19.92003 6.1189,-92.66525 9.5039,-161.65429 3.3849,-68.98885 7.7067,-130.32418 9.6035,-136.30078 3.1091,-9.79552 124.7836,-75.62696 139.7793,-75.62696 z m -623.7305,111.51953 c 4.2556,0.053 34.1443,14.9519 66.416,33.10743 69.257,38.96235 66.1174,31.77696 72.1563,165.18359 3.485,76.98913 2.4805,94.95395 -6.916,123.80078 -6.0454,18.55911 -15.2423,38.62011 -20.4395,44.57811 -15.6545,17.9464 -47.793,13.8447 -72.7539,-9.2851 -20.1818,-18.70176 -22.121,-23.82249 -27.5429,-72.73442 -20.0078,-180.49345 -24.0106,-284.80837 -10.92,-284.65039 z m -115.0254,309.41016 h 43.4629 43.4649 l 8.6328,32.25586 c 10.5616,39.46039 33.1815,57.01399 80.7226,62.64449 41.5803,4.9245 72.6288,-8.7876 85.3516,-37.6953 7.0723,-16.06961 11.4803,-19.39125 21.666,-16.3281 31.9595,9.6116 69.145,60.9864 62.7071,86.6367 -7.9147,31.535 -179.8118,159.1056 -251.0997,186.3496 -18.7251,7.1562 -38.74,14.9038 -44.4785,17.2168 -7.6788,3.0951 -14.4004,-2.0567 -25.457,-19.5156 -51.0574,-80.6226 -178.6835,-173.4065 -287.5918,-209.0781 -17.9004,-5.8631 -30.9887,-13.1819 -29.084,-16.2637 1.9046,-3.0817 16.2981,-13.1265 31.9863,-22.3203 39.7394,-23.28889 76.8801,-22.10601 128.4942,4.0918 21.5535,10.9401 51.3052,32.0959 66.1152,47.0117 14.8101,14.9157 30.8263,27.1743 35.5918,27.2441 4.7655,0.068 31.9265,-8.7109 60.3555,-19.5097 40.4183,-15.3531 51.6875,-22.2683 51.6875,-31.711 0,-6.8188 -17.9636,-29.2621 -41.2637,-51.55269 z m -43.8652,1.88867 c 4.3518,0.0621 13.0375,3.52855 25.916,11.44922 30.9663,19.04515 75.7168,60.62666 75.7168,70.35546 0,17.992 -18.3542,14.0652 -31.1679,-6.668 -7.2706,-11.764 -28.4224,-32.2761 -47.004,-45.58199 -24.2791,-17.38584 -31.7688,-29.67318 -23.4609,-29.55469 z m 815.4141,2.81836 c 24.4269,0.0375 50.8395,2.24185 54.9531,6.35547 2.5127,2.51271 -11.1846,12.81742 -30.4395,22.89844 -40.5796,21.24621 -82.1406,58.50051 -82.1406,73.62891 0,6.572 10.8223,15.103 29.0996,22.9375 16.0052,6.8606 42.4742,22.0807 58.8203,33.8242 33.7106,24.2187 37.4335,25.1143 48.5801,11.6836 12.4106,-14.9538 67.5716,-49.9899 107.4356,-68.2402 21.404,-9.7991 51.7218,-17.741 74.8027,-19.5938 34.3003,-2.7533 42.5973,-1.0565 71.373,14.6055 l 32.5606,17.7226 -52.418,6.9454 c -44.0337,5.8357 -65.7049,13.3702 -135.5058,47.1054 -90.1046,43.5481 -147.8235,83.3688 -182.918,126.1973 -13.8996,16.9624 -27.3626,27.25 -35.5527,27.1445 -19.9131,-0.2366 -100.0604,-42.12 -155.8965,-81.4687 -94.2746,-66.4371 -129.8175,-119.5221 -105.1895,-157.1094 10.679,-16.2982 62.1608,-52.20117 74.8516,-52.20117 3.9233,0 12.0124,10.82187 17.9765,24.04887 12.564,27.8613 30.4568,37.8515 67.7891,37.8515 42.9487,0 79.6866,-33.2363 98.4063,-89.02732 1.1288,-3.36457 18.6044,-5.07762 38.5605,-5.28711 1.6036,-0.0168 3.2231,-0.024 4.8516,-0.0215 z m -863.0254,8.50977 c 14.0999,0.27751 27.5629,6.88821 56.3086,26.52929 34.2474,23.40016 55.7949,47.60556 55.7949,62.68166 0,6.7309 -10.8076,0.9845 -30.9512,-16.461 -11.916,-10.3196 -41.1611,-30.4019 -64.9902,-44.62691 l -43.3262,-25.86523 21.0371,-2.00781 c 2.0867,-0.19925 4.1127,-0.28965 6.127,-0.25 z m 970.6484,9.53515 c 3.0276,-0.0616 5.4054,0.3605 6.9805,1.33399 3.9531,2.4432 -13.7182,14.5395 -40.8477,27.96091 -26.2988,13.0108 -57.9672,31.693 -70.373,41.5157 -37.8903,30.0001 -50.3726,21.328 -16.1328,-11.209 27.9974,-26.6052 95.72,-59.0997 120.373,-59.6016 z m -1028.4668,2.00782 c 19.8749,0 43.5178,12.06853 100.5957,51.34958 31.8235,21.901 42.8095,32.6112 37.1406,36.2071 -11.3473,7.1978 -8.647,8.4519 -69.8242,-32.3711 -30.5702,-20.3992 -61.9075,-38.67869 -69.6386,-40.61918 -19.0074,-4.77063 -17.8468,-14.5664 1.7265,-14.5664 z m 1090.2442,15.86914 c 1.6916,-0.0199 2.9408,0.18597 3.6797,0.64257 3.0964,1.91397 -13.4218,12.80337 -36.709,24.19927 -23.2873,11.3957 -57.0218,31.9686 -74.9649,45.7168 -34.9873,26.8072 -37.167,27.6493 -50.1875,19.4023 -11.4512,-7.2532 -5.5121,-15.2993 28.6289,-38.7891 28.1593,-19.3739 109.5917,-50.93715 129.5528,-51.17184 z m 51.4921,15.60934 c 7.0183,-0.085 12.3746,1.5989 17.5547,4.8828 5.6764,3.5985 -1.9322,8.5467 -24.4921,15.9258 -41.9835,13.7321 -81.0155,33.8212 -119.9043,61.7129 -32.6959,23.4501 -37.5571,25.3697 -42.795,16.8945 -7.2858,-11.7885 72.4601,-68.0284 123.584,-87.1562 21.9894,-8.2273 35.7958,-12.1349 46.0527,-12.2598 z m -1317.3085,56.7793 c 18.258,0.064 41.3496,8.781 83.9199,26.9942 87.1049,37.2668 153.8851,80.0211 207.4961,132.8457 59.2053,58.3367 60.032,66.8421 7.6152,78.3457 -59.3558,13.0265 -191.87,15.7849 -230.8008,4.8047 -56.6303,-15.9725 -122.9931,-52.1206 -150.5332,-81.9981 -25.0472,-27.173 -25.5809,-28.6647 -22.1601,-61.8086 3.9529,-38.3008 10.5586,-47.4825 57.3613,-79.7168 18.6443,-12.8409 30.9915,-19.5229 47.1016,-19.4668 z m 1467.625,49.1172 v 0 c 55.5821,-0.4312 87.3012,16.0495 116.1563,55.8633 21.8638,30.1661 21.5021,48.3565 -1.5821,79.5801 -28.2781,38.2478 -53.7984,47.2685 -192.6855,68.0996 -43.7148,6.5566 -85.4979,11.4347 -92.8516,10.8398 -7.3537,-0.5946 -25.9059,-2.0065 -41.2265,-3.1347 -76.2348,-5.6155 -154.752,-24.1359 -154.752,-36.5039 0,-11.3664 64.0152,-67.4723 116.8047,-102.3731 52.8027,-34.9094 118.8263,-57.714 197.373,-68.1719 19.7653,-2.6315 37.199,-4.0782 52.7618,-4.1992 z m -796.5918,6.7324 c 0.1085,0.013 0.1914,0.049 0.248,0.1055 12.972,12.9718 -76.8034,96.3348 -152.5234,141.6289 -39.5713,23.6707 -78.9521,41.1717 -120.6485,53.6152 -109.2406,32.6006 -229.4317,63.4571 -270.0293,69.3262 -78.6915,11.376 -143.9611,4.3292 -202.2734,-21.8398 -73.1385,-32.8228 -95.1759,-77.0413 -72.4668,-145.4121 l 10.7031,-32.2207 17.377,30.4277 c 24.6768,43.2075 67.7899,70.3902 160.6777,101.3086 69.5767,23.1592 83.4864,25.7552 139.2774,25.9922 62.6141,0.2656 153.1698,-17.116 188.8789,-36.2539 8.5114,-4.5617 38.1474,-17.8318 65.8574,-29.4903 57.9461,-24.3797 86.88,-43.1983 171.2207,-111.3554 32.3197,-26.1181 60.3358,-46.2454 63.7012,-45.8321 z m 133.3711,27.0469 c 2.9616,-0.035 13.4017,7.5326 25.7343,18.9004 76.6867,70.6872 197.3311,133.3762 311.4707,161.8457 100.9138,25.1708 135.7774,28.2877 219.2578,19.6094 132.0505,-13.7274 205.459,-36.6874 236.9493,-74.1113 8.7197,-10.3632 17.4277,-18.8418 19.3496,-18.8418 9.0512,0 1.9804,37.5568 -10.5801,56.1953 -21.2383,31.5156 -48.1042,46.4581 -133.4395,74.2207 -124.9988,40.6665 -205.1473,38.2226 -338.2382,-10.3164 -101.8359,-37.1402 -218.3313,-99.6586 -262.461,-140.8516 -26.7245,-24.9459 -68.8828,-77.473 -68.8828,-85.8242 0,-0.552 0.2914,-0.8197 0.8399,-0.8262 z"
           transform="scale(0.26458333)"
           inkscape:connector-curvature="0" />
        <g
           id="g883"
           transform="matrix(-0.95226518,0.1491892,0.1491892,0.95226518,1880.2642,-149.07225)">
          <path
             transform="scale(0.26458333)"
             inkscape:connector-curvature="0"
             id="path874"
             d="m 3433.5084,-877.50463 c -8.5196,-1.84989 -26.3586,-9.18614 -37.9448,-15.60466 -14.6565,-8.11941 -25.9875,-17.17289 -44.2086,-35.3226 -19.6549,-19.57801 -33.6476,-36.82353 -50.8641,-62.68857 -49.808,-74.82834 -69.4933,-138.55324 -69.5865,-225.26404 -0.054,-50.7463 6.5487,-88.2917 20.0451,-113.9755 20.6879,-39.3691 72.6401,-56.6293 128.3096,-42.6285 36.5757,9.1987 68.426,30.8415 88.1831,59.9219 27.6408,40.6842 50.7476,96.9774 63.8,155.4303 20.3202,91.0004 16.4435,176.58537 -10.4937,231.67068 -11.1951,22.89335 -23.9554,35.00741 -46.123,43.78703 -14.9235,5.91057 -28.3782,7.44001 -41.1171,4.67396 z m 31.1778,-17.25892 c 20.433,-6.06248 34.1337,-22.24391 44.8724,-52.99732 11.3707,-32.5633 16.3284,-69.48383 15.3852,-114.57533 -0.8694,-41.5621 -6.061,-71.463 -20.4463,-117.7605 -13.5573,-43.6325 -34.4928,-92.4518 -49.1533,-114.6201 -13.6329,-20.6143 -32.5079,-36.6292 -58.3613,-49.518 -22.2137,-11.0743 -41.8472,-16.1071 -62.6756,-16.0662 -15.5943,0.031 -20.7387,1.2134 -33.7738,7.7652 -20.4913,10.2996 -30.2127,22.7849 -39.3227,50.5025 -4.2978,13.0762 -8.3239,30.6511 -10.4721,45.7134 -2.4371,17.0878 -2.1323,54.1624 0.6132,74.5816 9.9085,73.6928 39.8278,146.053 85.8112,207.53561 32.9424,44.04588 65.4234,70.92385 95.4676,78.99915 9.2735,2.49255 24.436,2.70067 32.0555,0.43999 z"
             style="fill:#000000;fill-opacity:1;stroke:none;stroke-width:3.81789947;stroke-miterlimit:4;stroke-dasharray:none;stroke-dashoffset:0;stroke-opacity:1" />
          <path
             transform="scale(0.26458333)"
             inkscape:connector-curvature="0"
             id="path876"
             d="m 3433.3022,-961.40446 c -9.1027,-2.40156 -17.9399,-7.30541 -24.1954,-13.4264 -14.4037,-14.09407 -30.8372,-47.39184 -35.4591,-71.84804 -1.9575,-10.3574 -1.5023,-27.3986 0.9847,-36.8705 5.2393,-19.9542 21.2424,-43.4004 33.3426,-48.8503 4.6793,-2.1076 27.3437,-2.2835 35.4288,-0.275 25.4193,6.3147 39.7816,26.0083 47.0626,64.5318 4.2115,22.2836 -2.3386,72.27067 -11.9351,91.08251 -5.6298,11.03578 -17.5951,17.33122 -32.6684,17.18818 -3.8527,-0.0366 -9.5049,-0.72608 -12.5607,-1.53225 z m 17.7606,-23.28923 c 5.7655,-5.93225 12.7467,-20.16191 15.7906,-32.18571 1.989,-7.8569 2.2937,-11.5603 2.2437,-27.2741 -0.052,-16.3558 -0.3246,-19.1712 -2.713,-28.0203 -3.6299,-13.449 -8.8205,-23.035 -16.8819,-31.1773 -19.7731,-19.9713 -35.5329,-15.0369 -50.7234,15.8818 l -6.3877,13.0016 0.045,10.1064 c 0.04,8.9341 0.4816,11.3951 3.8064,21.218 9.9542,29.4091 26.7928,54.79987 40.595,61.21276 6.5327,3.03531 9.0682,2.5428 14.225,-2.76315 z"
             style="fill:#000000;fill-opacity:1;stroke:none;stroke-width:3.81789947;stroke-miterlimit:4;stroke-dasharray:none;stroke-dashoffset:0;stroke-opacity:1" />
          <path
             transform="scale(0.26458333)"
             inkscape:connector-curvature="0"
             id="path878"
             d="m 3413.3081,-1032.4725 c -5.3315,-2.4892 -7.6518,-7.1619 -9.2226,-18.5726 -1.3784,-10.0122 -1.3966,-28.3214 -0.033,-33.2306 2.7277,-9.8215 13.8843,-16.0244 24.6804,-13.7218 6.5361,1.394 14.486,8.8816 18.2454,17.1841 4.024,8.8869 4.6736,21.9237 1.5106,30.3172 -5.5171,14.6408 -23.1155,23.6568 -35.1806,18.0237 z m 15.9137,-16.2053 c 2.4799,-1.3272 4.0837,-6.2766 4.0656,-12.5465 -0.017,-5.7869 -1.4624,-9.2959 -4.7093,-11.4309 -1.9693,-1.2949 -2.4119,-1.2328 -4.2399,0.5952 -4.5462,4.5462 -5.0695,16.6174 -0.9477,21.8575 2.1735,2.7631 3.0763,2.9991 5.8313,1.5247 z"
             style="fill:#000000;fill-opacity:1;stroke:none;stroke-width:3.81789947;stroke-miterlimit:4;stroke-dasharray:none;stroke-dashoffset:0;stroke-opacity:1" />
        </g>
      </g>
      <path
         transform="scale(0.26458333)"
         inkscape:connector-curvature="0"
         id="path902"
         d="m 3436.2054,-983.96391 c -12.7683,-6.18386 -28.3422,-30.02709 -37.8302,-57.91699 -6.4371,-18.9216 -6.1424,-29.0012 1.3038,-44.6032 14.3315,-30.029 29.4413,-34.8462 48.6301,-15.504 14.5245,14.6406 18.876,27.9838 18.8939,57.9356 0.016,25.899 -3.4287,40.1269 -12.951,53.4997 -6.4241,9.02192 -10.1866,10.39561 -18.0466,6.58889 z m -2.1068,-49.48199 c 16.1261,-8.1319 22.4869,-29.0505 14.3083,-47.0556 -8.558,-18.8403 -26.1559,-24.7855 -39.1021,-13.2101 l -6.5979,5.8993 v 20.8698 c 0,22.7404 2.5794,32.1787 9.7403,35.6407 6.8095,3.2922 11.8635,2.7917 21.6514,-2.1441 z"
         style="fill:#000000;fill-opacity:1;stroke:#000000;stroke-width:7.63579893;stroke-miterlimit:4;stroke-dasharray:none;stroke-dashoffset:0;stroke-opacity:1" />
      <path
         transform="scale(0.26458333)"
         inkscape:connector-curvature="0"
         id="path904"
         d="m 3669.087,-992.46214 c -3.9795,-4.40478 -9.525,-12.52696 -12.3233,-18.04926 -6.746,-13.3124 -11.7917,-42.1527 -10.0679,-57.546 2.4886,-22.2234 18.9295,-45.7112 31.9805,-45.688 7.1669,0.013 16.3889,7.0939 26.7105,20.5098 l 9.8613,12.8177 -0.02,19.1928 c -0.027,26.4274 -9.0607,53.2725 -23.4354,69.6444 -8.2516,9.39802 -13.6069,9.19013 -22.7059,-0.88144 z m 35.5545,-46.70196 c 4.5694,-5.5908 4.8009,-29.1884 0.4308,-43.9041 -2.3342,-7.8601 -4.5656,-11.2102 -8.991,-13.4987 -12.1399,-6.2778 -24.6615,-1.8183 -31.3812,11.1762 -4.2552,8.2288 -3.8486,27.6786 0.7583,36.2686 7.843,14.6242 30.6353,20.4166 39.1831,9.958 z"
         style="fill:#000000;fill-opacity:1;stroke:#000000;stroke-width:7.63579893;stroke-miterlimit:4;stroke-dasharray:none;stroke-dashoffset:0;stroke-opacity:1" />
      <path
         d="m 911.81014,-278.58409 a 3.7767434,8.4189901 0 0 1 -3.40667,9.15696 3.7767434,8.4189901 0 0 1 -4.11354,-7.57858 3.7767434,8.4189901 0 0 1 3.39278,-9.18255 3.7767434,8.4189901 0 0 1 4.125,7.54757"
         sodipodi:open="true"
         sodipodi:end="6.1842426"
         sodipodi:start="6.190997"
         sodipodi:ry="8.4189901"
         sodipodi:rx="3.7767434"
         sodipodi:cy="-277.80905"
         sodipodi:cx="908.04944"
         sodipodi:type="arc"
         id="path916"
         style="fill:#ffffff;fill-opacity:1;stroke:none;stroke-width:1.78309834;stroke-miterlimit:4;stroke-dasharray:none;stroke-dashoffset:0;stroke-opacity:1" />
      <path
         d="m 977.55722,-279.60722 a 3.7767437,8.4189901 0 0 1 -3.40668,9.15696 3.7767437,8.4189901 0 0 1 -4.11354,-7.57858 3.7767437,8.4189901 0 0 1 3.39278,-9.18255 3.7767437,8.4189901 0 0 1 4.125,7.54757"
         sodipodi:open="true"
         sodipodi:end="6.1842426"
         sodipodi:start="6.190997"
         sodipodi:ry="8.4189901"
         sodipodi:rx="3.7767437"
         sodipodi:cy="-278.83218"
         sodipodi:cx="973.79651"
         sodipodi:type="arc"
         id="path916-9"
         style="fill:#ffffff;fill-opacity:1;stroke:none;stroke-width:1.78309834;stroke-miterlimit:4;stroke-dasharray:none;stroke-dashoffset:0;stroke-opacity:1" />
    </g>
  </g>
</svg>
